<?xml version="1.0" standalone="no"?>
<!DOCTYPE svg PUBLIC "-//W3C//DTD SVG 20010904//EN"
 "http://www.w3.org/TR/2001/REC-SVG-20010904/DTD/svg10.dtd">
<svg version="1.0" xmlns="http://www.w3.org/2000/svg"
 width="687.000000pt" height="687.000000pt" viewBox="0 0 687.000000 687.000000"
 preserveAspectRatio="xMidYMid meet">
<metadata>
Created by potrace 1.14, written by Peter Selinger 2001-2017
</metadata>
<g transform="translate(0.000000,687.000000) scale(0.100000,-0.100000)"
fill="#000000" stroke="none">
<path d="M3227 6814 c-1 -1 -40 -5 -87 -8 -47 -4 -98 -8 -115 -10 -16 -2 -57
-7 -90 -11 -32 -4 -68 -9 -80 -11 -11 -2 -36 -7 -55 -10 -29 -5 -171 -35 -230
-49 -249 -60 -567 -188 -813 -326 -96 -54 -274 -168 -318 -203 -14 -12 -38
-30 -53 -41 -35 -25 -129 -100 -176 -140 -76 -64 -320 -315 -386 -395 -237
-287 -425 -612 -556 -959 -69 -182 -138 -440 -163 -606 -3 -22 -10 -68 -15
-102 -6 -34 -13 -90 -16 -125 -3 -35 -7 -81 -9 -103 -11 -110 -5 -440 11 -570
2 -22 7 -62 10 -90 8 -74 35 -227 55 -315 6 -25 12 -52 14 -60 31 -149 145
-459 241 -656 82 -168 260 -462 286 -472 4 -2 8 -9 8 -16 0 -7 8 -21 18 -32 9
-10 33 -39 52 -64 19 -25 39 -50 45 -57 53 -59 90 -109 87 -116 -1 -5 2 -6 7
-3 12 8 42 -34 34 -47 -3 -6 -2 -7 4 -4 11 7 149 -132 145 -146 -1 -4 1 -6 6
-3 5 3 32 -16 60 -42 27 -26 66 -60 86 -76 20 -15 33 -33 29 -39 -3 -5 -1 -7
4 -4 13 8 55 -27 45 -38 -4 -5 -2 -5 5 -2 6 4 18 0 26 -8 9 -8 19 -15 24 -15
5 0 16 -8 25 -18 25 -26 42 -38 76 -56 17 -9 35 -23 40 -32 5 -9 13 -17 18
-17 5 -1 8 -6 6 -10 -1 -5 2 -6 8 -2 5 3 10 1 10 -5 0 -6 5 -8 10 -5 6 3 10 1
10 -5 0 -6 4 -9 9 -6 5 3 20 -5 35 -19 14 -13 26 -22 26 -19 0 3 9 0 20 -6 11
-6 17 -16 14 -22 -4 -7 -3 -8 4 -4 7 4 12 2 12 -4 0 -6 4 -8 10 -5 11 7 141
-65 135 -75 -2 -3 5 -7 16 -7 11 -1 57 -19 102 -41 45 -22 96 -45 114 -53 17
-7 30 -16 27 -20 -2 -4 8 -6 22 -6 15 -1 30 -6 34 -13 4 -6 10 -11 14 -11 22
2 65 -13 59 -22 -3 -6 -1 -7 5 -3 7 4 18 4 24 -1 7 -4 15 -8 18 -8 39 -6 69
-19 64 -27 -4 -7 -2 -8 4 -4 16 10 63 -4 55 -17 -3 -6 -1 -7 6 -3 17 11 51 -3
52 -22 0 -14 2 -13 9 3 5 11 9 14 9 7 1 -7 6 -10 11 -7 6 4 17 1 25 -5 8 -7
15 -10 15 -7 0 3 15 1 33 -4 17 -6 43 -12 57 -15 61 -11 71 -15 63 -27 -5 -9
-4 -9 8 0 11 9 28 8 74 -3 33 -7 73 -14 88 -14 20 0 26 -4 21 -13 -5 -9 -4 -9
6 0 11 10 16 9 27 -5 8 -9 12 -11 8 -4 -9 18 6 15 21 -5 13 -16 14 -16 8 -1
-5 15 -2 16 25 8 17 -5 31 -6 31 -3 0 3 8 -1 17 -8 14 -12 16 -12 8 0 -6 11
-4 13 11 7 18 -7 53 -10 162 -14 41 -2 42 -3 32 -24 -11 -22 -11 -23 5 -3 16
21 65 31 65 14 0 -5 5 -9 11 -9 5 0 8 4 5 8 -6 10 60 9 70 -1 10 -10 26 -9 20
1 -3 5 1 9 10 9 10 0 13 -7 9 -21 -5 -17 -3 -16 9 4 16 29 27 29 37 3 7 -17 8
-16 8 2 1 17 3 17 11 5 5 -8 10 -10 10 -4 0 16 39 12 51 -6 9 -13 10 -12 5 3
-4 12 0 17 14 17 14 0 18 -5 14 -17 -5 -17 -5 -17 6 0 17 26 43 22 36 -5 -5
-20 -4 -20 7 2 11 22 18 25 65 25 30 0 56 3 58 6 2 4 20 6 39 5 19 -1 35 3 35
8 0 6 7 1 15 -10 8 -10 15 -14 15 -9 1 6 6 1 11 -10 l9 -20 -3 20 c-2 11 -9
19 -15 17 -7 -1 -12 3 -12 9 0 6 8 9 19 6 10 -2 26 0 36 6 13 7 16 6 11 -2 -4
-6 0 -11 9 -11 9 0 14 4 11 8 -3 5 0 9 7 10 53 6 82 10 82 12 0 1 11 3 25 6
l25 4 -25 -16 c-17 -10 -18 -13 -5 -8 11 4 29 7 40 6 11 0 14 2 8 5 -19 7 -16
22 5 22 42 2 103 15 185 41 17 5 25 5 21 -1 -3 -5 0 -8 7 -7 7 2 13 -2 14 -9
0 -23 11 -22 11 2 0 13 -4 21 -8 19 -4 -3 -8 0 -8 6 0 7 7 9 17 6 9 -4 19 -2
22 3 4 5 19 12 35 15 16 3 31 8 34 11 3 3 12 -5 19 -17 13 -22 13 -22 7 6 -5
21 -4 27 5 22 7 -4 17 -4 24 1 7 5 25 15 40 21 23 10 28 10 25 0 -3 -7 -10
-13 -16 -13 -5 0 -13 -3 -17 -7 -4 -3 1 -5 12 -3 10 2 21 4 26 4 4 1 7 10 7
21 0 11 5 20 11 20 5 0 7 -4 4 -10 -3 -6 1 -7 9 -4 9 3 13 11 10 16 -4 6 3 5
15 -1 17 -10 20 -9 15 4 -4 8 -2 15 4 15 6 0 13 -6 15 -12 3 -8 6 -5 6 5 1 10
6 15 11 12 6 -3 10 -1 10 4 0 6 6 11 13 11 6 0 24 6 39 14 17 9 30 10 36 4 6
-6 20 -4 38 6 16 8 25 15 21 16 -5 0 -17 -5 -29 -11 -11 -6 -22 -8 -25 -6 -9
10 97 56 114 50 12 -5 14 -3 8 8 -7 12 -6 12 7 1 13 -10 18 -9 29 5 13 16 12
17 -3 4 -11 -8 -18 -9 -18 -3 0 6 14 17 30 26 17 8 30 11 30 7 0 -4 7 -8 15
-8 11 0 12 4 4 14 -6 7 -10 13 -8 14 48 9 53 9 41 -3 -15 -15 -16 -28 -1 -28
5 0 8 4 4 9 -3 5 -1 12 4 16 6 3 8 11 5 18 -3 8 14 21 43 35 38 17 50 19 62 9
14 -10 14 -10 3 5 -8 10 -9 19 -3 22 5 3 12 0 14 -6 3 -8 6 -6 6 4 1 18 38 44
49 34 3 -3 0 -6 -7 -6 -7 0 -9 -5 -5 -11 9 -16 24 10 16 29 -3 10 0 13 9 10 8
-3 13 -11 12 -17 -2 -6 2 -11 8 -11 6 0 8 7 5 16 -7 18 10 44 27 44 6 0 2 -7
-9 -16 -18 -14 -18 -15 4 -4 12 6 22 18 22 28 0 14 2 15 10 2 6 -9 6 -18 0
-24 -6 -6 -10 -15 -10 -21 1 -17 24 28 25 47 0 10 4 17 10 15 5 -1 9 -9 7 -17
-2 -11 1 -10 8 3 6 9 9 21 6 26 -3 5 1 14 9 21 12 10 18 10 29 1 12 -10 13 -8
9 8 -3 12 -1 21 6 21 6 0 12 -7 12 -15 3 -28 4 -33 11 -40 7 -7 1 43 -7 55 -6
10 30 37 43 32 7 -2 12 3 12 12 0 8 13 22 29 31 17 8 37 25 45 37 16 22 16 22
31 3 16 -20 16 -20 6 0 -7 16 -4 25 14 43 12 12 26 22 30 22 4 0 16 12 27 26
16 20 23 23 29 12 7 -11 10 -10 21 1 10 10 10 12 1 7 -8 -4 -13 -1 -13 7 0 14
27 32 42 29 4 -1 4 6 1 15 -4 10 -2 14 5 9 6 -3 13 3 17 14 4 11 10 18 14 15
5 -2 13 6 19 19 8 19 17 22 48 20 31 -3 35 -1 21 7 -9 6 -22 7 -27 4 -6 -3
-10 -1 -10 4 0 10 14 15 33 12 5 -1 5 3 2 10 -11 16 45 70 66 64 10 -3 20 -1
24 4 3 6 0 8 -8 5 -8 -3 -18 0 -23 7 -4 7 -3 10 2 7 8 -4 44 25 44 37 0 3 0
10 0 15 0 6 7 10 16 10 8 0 13 4 10 9 -8 12 41 54 53 46 6 -3 11 -1 11 4 0 6
-5 11 -10 11 -6 0 2 16 17 35 15 19 34 33 41 30 6 -2 12 0 12 5 0 6 -5 10 -11
10 -9 0 34 64 64 95 11 11 1 -11 -17 -35 -6 -9 -1 -6 11 7 12 13 20 30 17 38
-4 8 -1 15 5 15 6 0 11 -4 11 -10 0 -5 5 -10 12 -10 8 0 6 6 -4 16 -15 15 -15
19 7 42 13 14 22 29 20 33 -3 4 2 9 10 13 8 3 15 12 15 21 0 8 3 15 8 15 4 0
15 18 25 40 9 22 22 40 28 40 5 0 8 4 4 9 -3 5 2 16 10 25 9 8 16 18 15 21 -1
23 2 27 20 22 11 -3 23 0 27 5 3 7 1 8 -5 4 -7 -4 -12 -2 -12 4 0 6 -5 8 -12
4 -7 -4 -8 -3 -4 5 5 7 17 9 29 5 22 -6 22 -6 2 11 l-20 17 20 -7 c15 -5 17
-3 9 5 -20 20 -5 51 22 46 13 -3 27 0 30 6 4 7 2 8 -4 4 -7 -4 -12 -1 -12 6 0
10 -3 9 -11 -2 -9 -12 -10 -12 -5 3 3 10 6 22 6 27 0 4 15 17 33 29 17 11 27
21 21 21 -5 0 -15 -5 -22 -12 -15 -15 -15 -10 -1 31 6 17 15 31 21 31 5 0 7 4
3 9 -3 5 -1 12 5 16 5 3 10 15 10 26 0 11 4 18 9 15 5 -3 12 1 15 10 4 10 2
13 -7 7 -6 -4 -5 4 4 17 10 15 25 24 35 22 15 -2 16 -1 4 7 -8 5 -18 7 -22 5
-18 -11 -6 16 13 29 15 11 17 16 7 21 -10 5 -10 7 0 12 6 3 9 11 6 16 -4 6 -2
8 3 5 6 -4 14 0 17 9 4 9 2 13 -5 8 -13 -8 -3 33 13 53 5 7 6 18 2 24 -5 8 -1
11 13 7 12 -3 20 0 20 7 0 8 -7 11 -15 7 -11 -4 -13 -2 -6 9 9 15 11 20 13 47
1 15 3 15 11 2 5 -8 10 -10 10 -4 0 5 -5 15 -12 22 -9 9 -9 12 0 12 7 0 12 7
12 15 0 8 6 15 13 15 8 0 7 3 -3 10 -8 5 -11 12 -7 16 3 4 13 1 21 -5 12 -10
14 -9 11 6 -1 10 -8 17 -14 16 -15 -4 -14 24 1 33 7 5 8 3 3 -6 -5 -9 -4 -11
4 -6 9 6 9 11 1 21 -8 10 -8 19 0 35 6 11 8 25 5 30 -3 6 -2 10 4 10 5 0 8 9
6 20 -5 27 4 52 17 44 6 -4 5 3 -1 15 -10 17 -9 20 4 15 8 -4 15 -1 15 5 0 6
-4 11 -9 11 -16 0 -6 35 14 48 18 12 18 13 1 8 -14 -5 -17 -2 -12 10 3 8 6 26
6 40 0 18 4 22 18 18 16 -5 16 -5 0 6 -9 6 -15 16 -12 24 5 13 11 55 13 93 0
12 9 24 19 26 16 4 16 5 0 6 -20 1 -24 16 -8 26 6 3 10 11 10 16 0 6 -6 7 -12
3 -10 -6 -10 -4 0 8 8 11 9 18 3 22 -6 4 -7 15 -1 30 5 13 7 35 6 49 -2 17 1
24 8 20 6 -4 5 1 -3 10 -9 11 -10 17 -2 17 6 0 11 7 11 16 0 8 -4 13 -9 10 -4
-3 -6 6 -3 19 2 14 9 22 15 18 6 -4 7 -1 1 8 -14 23 -15 101 -1 92 9 -5 9 -3
1 8 -6 8 -12 32 -12 53 -1 21 -4 41 -7 44 -3 3 0 11 6 19 6 7 7 13 2 13 -5 0
-9 18 -9 40 1 22 6 40 11 40 6 0 4 4 -2 8 -7 4 -15 27 -18 50 -5 36 -3 41 12
35 15 -5 15 -3 -2 11 -14 12 -16 19 -8 22 10 4 9 9 -2 21 -18 18 -20 37 -2 27
9 -6 9 -4 1 7 -16 21 -24 59 -12 59 7 0 7 4 0 13 -6 6 -13 32 -17 57 -3 25 -9
53 -12 64 -3 10 -1 16 4 13 5 -4 10 0 10 8 0 8 -4 12 -9 9 -8 -5 -12 10 -9 30
1 4 -3 14 -10 22 -6 8 -9 20 -6 27 3 8 1 20 -3 27 -5 8 -4 22 1 32 7 13 6 16
-4 12 -15 -5 -43 109 -31 128 4 7 3 8 -4 4 -13 -8 -30 46 -27 82 1 12 0 20 -3
17 -7 -7 -33 45 -27 55 3 5 1 11 -4 14 -5 4 -8 17 -7 31 2 13 0 22 -4 20 -11
-7 -33 52 -24 66 4 7 3 10 -4 5 -6 -3 -13 -2 -16 3 -4 5 -2 12 4 16 5 3 10 12
10 18 0 8 -3 8 -9 -1 -6 -10 -11 -5 -20 18 -6 18 -9 36 -6 40 3 4 -2 10 -10
14 -8 3 -15 15 -15 26 0 11 -4 20 -9 20 -5 0 -15 17 -22 38 -7 20 -19 47 -27
60 -8 12 -11 22 -7 22 3 0 -1 7 -9 16 -9 8 -14 20 -11 25 4 5 1 9 -4 9 -6 0
-11 9 -11 21 0 12 -4 18 -11 13 -7 -4 -10 -1 -7 7 3 8 -1 20 -9 27 -7 8 -11
18 -7 23 3 5 0 8 -8 7 -7 -2 -13 5 -13 15 0 10 -5 21 -11 25 -18 13 -54 83
-48 94 4 6 2 8 -3 5 -10 -7 -63 63 -63 83 0 5 -4 10 -10 10 -5 0 -10 7 -10 15
0 8 -4 15 -10 15 -5 0 -10 7 -10 15 0 8 -4 15 -8 15 -10 0 -47 62 -44 73 1 5
-1 6 -6 3 -8 -4 -40 30 -42 46 -1 4 -15 22 -33 40 -34 36 -62 70 -64 78 0 3
-29 35 -64 71 -35 36 -76 79 -91 95 -15 16 -43 44 -62 63 -19 19 -32 39 -29
44 3 6 1 7 -5 3 -14 -8 -63 34 -55 47 3 6 2 7 -4 4 -5 -3 -20 4 -34 16 -47 44
-216 176 -303 237 -165 114 -390 237 -606 330 -149 64 -470 163 -599 185 -19
3 -37 7 -40 9 -3 2 -26 7 -51 10 -25 3 -56 8 -70 11 -54 9 -190 26 -256 31
-67 5 -432 12 -437 8z"/>
<path d="M6535 4661 c-3 -5 -2 -12 3 -15 5 -3 9 1 9 9 0 17 -3 19 -12 6z"/>
<path d="M6633 4375 c0 -8 4 -12 9 -9 5 3 6 10 3 15 -9 13 -12 11 -12 -6z"/>
<path d="M6670 4231 c0 -6 4 -13 10 -16 6 -3 7 1 4 9 -7 18 -14 21 -14 7z"/>
<path d="M6690 4061 c0 -6 4 -13 10 -16 6 -3 7 1 4 9 -7 18 -14 21 -14 7z"/>
<path d="M6719 3958 c-7 -24 -4 -40 9 -50 15 -11 15 -11 6 2 -6 8 -10 23 -9
33 3 13 -2 26 -6 15z"/>
<path d="M6725 3770 c-3 -6 1 -7 9 -4 18 7 21 14 7 14 -6 0 -13 -4 -16 -10z"/>
<path d="M6730 3655 c0 -7 30 -13 34 -7 3 4 -4 9 -15 9 -10 1 -19 0 -19 -2z"/>
<path d="M6735 3610 c3 -5 8 -10 11 -10 2 0 4 5 4 10 0 6 -5 10 -11 10 -5 0
-7 -4 -4 -10z"/>
<path d="M6750 3569 c0 -5 5 -7 10 -4 6 3 10 8 10 11 0 2 -4 4 -10 4 -5 0 -10
-5 -10 -11z"/>
<path d="M6750 3526 c7 -7 13 -7 20 0 6 6 3 10 -10 10 -13 0 -16 -4 -10 -10z"/>
<path d="M6750 3446 c7 -7 13 -7 20 0 6 6 3 10 -10 10 -13 0 -16 -4 -10 -10z"/>
<path d="M6750 3370 c0 -5 5 -10 11 -10 5 0 7 5 4 10 -3 6 -8 10 -11 10 -2 0
-4 -4 -4 -10z"/>
<path d="M6749 3293 c-13 -16 -12 -17 4 -4 16 13 21 21 13 21 -2 0 -10 -8 -17
-17z"/>
<path d="M6736 3251 c-4 -5 3 -7 14 -4 23 6 26 13 6 13 -8 0 -17 -4 -20 -9z"/>
<path d="M6720 3226 c0 -2 7 -7 16 -10 8 -3 12 -2 9 4 -6 10 -25 14 -25 6z"/>
<path d="M6719 3083 c-13 -16 -12 -17 4 -4 9 7 17 15 17 17 0 8 -8 3 -21 -13z"/>
<path d="M6710 3030 c0 -5 5 -10 10 -10 6 0 10 5 10 10 0 6 -4 10 -10 10 -5 0
-10 -4 -10 -10z"/>
<path d="M6708 2953 c7 -3 16 -2 19 1 4 3 -2 6 -13 5 -11 0 -14 -3 -6 -6z"/>
<path d="M6695 2890 c-3 -6 1 -7 9 -4 18 7 21 14 7 14 -6 0 -13 -4 -16 -10z"/>
<path d="M6696 2823 c-6 -14 -5 -15 5 -6 7 7 10 15 7 18 -3 3 -9 -2 -12 -12z"/>
<path d="M6686 2788 c3 -5 10 -6 15 -3 13 9 11 12 -6 12 -8 0 -12 -4 -9 -9z"/>
<path d="M6666 2754 c-9 -24 -2 -26 12 -4 7 11 8 20 3 20 -5 0 -12 -7 -15 -16z"/>
<path d="M6655 2710 c-3 -5 -1 -10 4 -10 6 0 11 5 11 10 0 6 -2 10 -4 10 -3 0
-8 -4 -11 -10z"/>
<path d="M6656 2652 c-3 -4 4 -9 15 -9 23 -2 25 3 4 10 -8 4 -16 3 -19 -1z"/>
<path d="M6636 2568 c3 -4 0 -8 -5 -8 -6 0 -11 -4 -11 -8 0 -5 7 -9 15 -9 8 0
13 3 10 5 -3 3 0 10 5 17 7 8 5 12 -5 12 -8 0 -12 -4 -9 -9z"/>
<path d="M6596 2397 c3 -10 9 -15 12 -12 3 3 0 11 -7 18 -10 9 -11 8 -5 -6z"/>
<path d="M6566 2385 c4 -8 8 -15 10 -15 2 0 4 7 4 15 0 8 -4 15 -10 15 -5 0
-7 -7 -4 -15z"/>
<path d="M6510 2236 c0 -8 4 -17 9 -20 5 -4 7 3 4 14 -6 23 -13 26 -13 6z"/>
<path d="M6500 2189 c0 -5 5 -7 10 -4 6 3 10 8 10 11 0 2 -4 4 -10 4 -5 0 -10
-5 -10 -11z"/>
<path d="M6476 2165 c-9 -26 -7 -32 5 -12 6 10 9 21 6 23 -2 3 -7 -2 -11 -11z"/>
<path d="M6486 2132 c-3 -5 1 -9 9 -9 8 0 12 4 9 9 -3 4 -7 8 -9 8 -2 0 -6 -4
-9 -8z"/>
<path d="M6445 2121 c-6 -11 13 -26 22 -17 4 3 0 6 -8 6 -11 0 -11 2 1 10 9 6
10 10 3 10 -6 0 -14 -4 -18 -9z"/>
<path d="M6430 2039 c0 -5 -5 -7 -12 -3 -7 4 -8 3 -4 -5 6 -9 11 -9 22 0 17
14 18 19 4 19 -5 0 -10 -5 -10 -11z"/>
<path d="M6375 1970 c-3 -5 -1 -10 4 -10 6 0 11 5 11 10 0 6 -2 10 -4 10 -3 0
-8 -4 -11 -10z"/>
<path d="M6397 1953 c-4 -3 -7 -11 -7 -17 0 -6 5 -5 12 2 6 6 9 14 7 17 -3 3
-9 2 -12 -2z"/>
<path d="M6326 1882 c-3 -5 1 -9 9 -9 8 0 12 4 9 9 -3 4 -7 8 -9 8 -2 0 -6 -4
-9 -8z"/>
<path d="M6310 1810 c0 -5 5 -10 10 -10 6 0 10 5 10 10 0 6 -4 10 -10 10 -5 0
-10 -4 -10 -10z"/>
<path d="M6274 1764 c-18 -14 -18 -15 4 -4 12 6 22 13 22 15 0 8 -5 6 -26 -11z"/>
<path d="M6255 1730 c3 -5 8 -10 11 -10 2 0 4 5 4 10 0 6 -5 10 -11 10 -5 0
-7 -4 -4 -10z"/>
<path d="M6235 1710 c-3 -5 -1 -10 4 -10 6 0 11 5 11 10 0 6 -2 10 -4 10 -3 0
-8 -4 -11 -10z"/>
<path d="M6222 1670 c0 -14 2 -19 5 -12 2 6 2 18 0 25 -3 6 -5 1 -5 -13z"/>
<path d="M6190 1656 c0 -2 7 -9 15 -16 13 -11 14 -10 9 4 -5 14 -24 23 -24 12z"/>
<path d="M6206 1612 c-3 -5 1 -9 9 -9 8 0 12 4 9 9 -3 4 -7 8 -9 8 -2 0 -6 -4
-9 -8z"/>
<path d="M6156 1565 c-9 -26 -7 -32 5 -12 6 10 9 21 6 23 -2 3 -7 -2 -11 -11z"/>
<path d="M6110 1519 c0 -5 -4 -7 -10 -4 -6 4 -7 -1 -3 -11 4 -11 8 -13 11 -6
2 7 8 10 13 7 5 -4 6 1 3 9 -7 18 -14 21 -14 5z"/>
<path d="M6067 1469 c7 -7 15 -10 18 -7 3 3 -2 9 -12 12 -14 6 -15 5 -6 -5z"/>
<path d="M6050 1452 c0 -15 28 -23 36 -9 4 7 4 9 -1 5 -4 -4 -14 -3 -22 3 -8
7 -13 8 -13 1z"/>
<path d="M6040 1420 c6 -11 13 -20 16 -20 2 0 0 9 -6 20 -6 11 -13 20 -16 20
-2 0 0 -9 6 -20z"/>
<path d="M5996 1392 c-2 -4 -1 -14 4 -22 7 -11 9 -9 7 8 -1 24 -3 26 -11 14z"/>
<path d="M5973 1350 c-2 -23 13 -35 23 -19 5 8 3 9 -6 4 -9 -5 -10 -2 -5 14 3
11 3 21 -2 21 -5 0 -9 -9 -10 -20z"/>
<path d="M5951 1330 c3 -30 -1 -41 -13 -34 -7 4 -8 3 -4 -4 10 -16 14 -15 25
6 6 12 6 23 0 33 -8 12 -10 12 -8 -1z"/>
<path d="M5975 1299 c-4 -6 -5 -12 -2 -15 2 -3 7 2 10 11 7 17 1 20 -8 4z"/>
<path d="M5886 1247 c3 -10 9 -15 12 -12 3 3 0 11 -7 18 -10 9 -11 8 -5 -6z"/>
<path d="M5920 1250 c-9 -6 -10 -10 -3 -10 6 0 15 5 18 10 8 12 4 12 -15 0z"/>
<path d="M5870 1232 c0 -7 -4 -11 -9 -7 -5 3 -12 1 -15 -4 -4 -5 2 -8 11 -6
10 1 23 -2 30 -7 7 -6 14 -5 19 3 4 7 3 9 -4 5 -6 -3 -15 2 -21 11 -6 11 -11
13 -11 5z"/>
<path d="M5850 1192 c0 -5 7 -9 15 -9 8 0 12 4 9 9 -3 4 -9 8 -15 8 -5 0 -9
-4 -9 -8z"/>
<path d="M5780 1150 c0 -6 7 -10 15 -10 8 0 15 2 15 4 0 2 -7 6 -15 10 -8 3
-15 1 -15 -4z"/>
<path d="M5820 1136 c0 -2 9 -6 20 -9 11 -3 18 -1 14 4 -5 9 -34 13 -34 5z"/>
<path d="M5773 1111 c0 -11 5 -18 9 -15 4 3 5 11 1 19 -7 21 -12 19 -10 -4z"/>
<path d="M5740 1070 c18 -12 30 -13 30 -2 0 4 -10 9 -22 9 -18 2 -20 0 -8 -7z"/>
<path d="M5695 1050 c3 -5 8 -10 11 -10 2 0 4 5 4 10 0 6 -5 10 -11 10 -5 0
-7 -4 -4 -10z"/>
<path d="M5636 1011 c-3 -5 1 -11 9 -14 9 -4 12 -1 8 9 -6 16 -10 17 -17 5z"/>
<path d="M5677 999 c7 -7 15 -10 18 -7 3 3 -2 9 -12 12 -14 6 -15 5 -6 -5z"/>
<path d="M5630 982 c0 -15 28 -23 36 -9 4 7 4 9 -1 5 -4 -4 -14 -3 -22 3 -8 7
-13 8 -13 1z"/>
<path d="M5582 959 c-16 -26 -4 -40 23 -28 18 9 18 9 -2 5 -27 -5 -29 1 -6 26
9 10 12 18 7 18 -5 0 -15 -10 -22 -21z"/>
<path d="M5520 897 c-25 -36 -32 -53 -15 -32 9 11 21 19 26 17 6 -1 8 2 5 7
-4 5 -1 11 6 13 7 3 8 7 2 11 -5 3 -17 -4 -24 -16z"/>
<path d="M5575 899 c-4 -6 -5 -12 -2 -15 2 -3 7 2 10 11 7 17 1 20 -8 4z"/>
<path d="M5470 870 c-9 -6 -10 -10 -3 -10 6 0 15 5 18 10 8 12 4 12 -15 0z"/>
<path d="M5530 850 c0 -5 5 -10 11 -10 5 0 7 5 4 10 -3 6 -8 10 -11 10 -2 0
-4 -4 -4 -10z"/>
<path d="M5460 836 c0 -2 7 -6 15 -10 8 -3 15 -1 15 4 0 6 -7 10 -15 10 -8 0
-15 -2 -15 -4z"/>
<path d="M5415 820 c-3 -5 -2 -17 3 -26 8 -14 10 -12 10 9 0 29 -3 33 -13 17z"/>
<path d="M5340 770 c0 -5 5 -10 11 -10 5 0 7 5 4 10 -3 6 -8 10 -11 10 -2 0
-4 -4 -4 -10z"/>
<path d="M5350 740 c-18 -15 -20 -18 -6 -13 15 5 17 3 11 -8 -5 -8 -5 -11 1
-6 5 5 9 12 9 15 0 4 4 13 8 20 11 17 6 15 -23 -8z"/>
<path d="M5300 690 c-12 -7 -10 -9 7 -7 12 0 19 5 17 9 -6 10 -6 10 -24 -2z"/>
<path d="M5152 645 c4 -4 3 -16 -3 -26 -5 -11 -7 -19 -5 -19 3 0 10 9 16 19 7
15 7 22 -2 27 -7 4 -10 4 -6 -1z"/>
<path d="M5051 582 c-1 -7 -5 -10 -11 -7 -5 3 -10 1 -10 -5 0 -10 59 -5 70 7
3 3 -5 4 -17 1 -12 -3 -24 -1 -27 6 -3 7 -5 7 -5 -2z"/>
<path d="M4933 505 c0 -8 4 -12 9 -9 5 3 6 10 3 15 -9 13 -12 11 -12 -6z"/>
<path d="M4832 464 c-7 -8 -8 -14 -3 -14 10 0 25 19 20 25 -2 1 -10 -3 -17
-11z"/>
<path d="M4870 460 c-9 -6 -10 -10 -3 -10 6 0 15 5 18 10 8 12 4 12 -15 0z"/>
<path d="M4720 408 c-12 -8 -12 -9 2 -5 9 3 19 1 22 -6 3 -9 5 -9 5 0 1 18
-13 23 -29 11z"/>
<path d="M4690 396 c0 -8 4 -17 9 -20 5 -4 7 3 4 14 -6 23 -13 26 -13 6z"/>
<path d="M4776 397 c3 -10 9 -15 12 -12 3 3 0 11 -7 18 -10 9 -11 8 -5 -6z"/>
<path d="M4671 384 c0 -11 3 -14 6 -6 3 7 2 16 -1 19 -3 4 -6 -2 -5 -13z"/>
<path d="M4633 345 c0 -8 4 -12 9 -9 4 3 8 9 8 15 0 5 -4 9 -8 9 -5 0 -9 -7
-9 -15z"/>
<path d="M4588 343 c6 -2 10 -9 7 -14 -4 -5 1 -6 10 -2 13 5 14 7 3 14 -7 5
-17 8 -23 8 -5 0 -4 -3 3 -6z"/>
<path d="M4472 314 c-7 -8 -8 -14 -3 -14 10 0 25 19 20 25 -2 1 -10 -3 -17
-11z"/>
<path d="M4536 303 c-6 -14 -5 -15 5 -6 7 7 10 15 7 18 -3 3 -9 -2 -12 -12z"/>
<path d="M2356 288 c3 -5 10 -6 15 -3 13 9 11 12 -6 12 -8 0 -12 -4 -9 -9z"/>
<path d="M4370 290 c-9 -6 -10 -10 -3 -10 6 0 15 5 18 10 8 12 4 12 -15 0z"/>
<path d="M4417 279 c4 -13 8 -18 11 -10 2 7 -1 18 -6 23 -8 8 -9 4 -5 -13z"/>
<path d="M4385 270 c-3 -6 1 -7 9 -4 18 7 21 14 7 14 -6 0 -13 -4 -16 -10z"/>
<path d="M4348 263 c7 -3 16 -2 19 1 4 3 -2 6 -13 5 -11 0 -14 -3 -6 -6z"/>
<path d="M4215 240 c-4 -6 -10 -8 -14 -6 -4 3 -8 -1 -8 -9 0 -12 4 -12 21 2
12 10 23 19 25 20 2 2 -1 3 -7 3 -6 0 -14 -5 -17 -10z"/>
<path d="M4270 241 c0 -6 4 -13 10 -16 6 -3 7 1 4 9 -7 18 -14 21 -14 7z"/>
<path d="M4110 220 c-9 -6 -10 -10 -3 -10 6 0 15 5 18 10 8 12 4 12 -15 0z"/>
<path d="M2640 210 c-9 -6 -10 -10 -3 -10 6 0 15 5 18 10 8 12 4 12 -15 0z"/>
<path d="M2700 216 c0 -2 8 -10 18 -17 15 -13 16 -12 3 4 -13 16 -21 21 -21
13z"/>
<path d="M4136 211 c-3 -4 6 -6 19 -3 14 2 25 6 25 8 0 8 -39 4 -44 -5z"/>
<path d="M2760 196 c0 -2 7 -7 16 -10 8 -3 12 -2 9 4 -6 10 -25 14 -25 6z"/>
<path d="M3956 184 c-11 -8 -15 -14 -10 -14 6 0 16 6 23 13 12 10 13 8 7 -8
-6 -16 -5 -18 5 -7 20 19 -2 33 -25 16z"/>
<path d="M4107 189 c7 -7 15 -10 18 -7 3 3 -2 9 -12 12 -14 6 -15 5 -6 -5z"/>
<path d="M2965 150 c-3 -6 1 -7 9 -4 18 7 21 14 7 14 -6 0 -13 -4 -16 -10z"/>
<path d="M3030 151 c0 -6 4 -13 10 -16 6 -3 7 1 4 9 -7 18 -14 21 -14 7z"/>
<path d="M3065 150 c-2 -3 7 -6 21 -6 13 0 24 3 24 7 0 9 -40 8 -45 -1z"/>
<path d="M3126 152 c-3 -5 1 -9 9 -9 8 0 12 4 9 9 -3 4 -7 8 -9 8 -2 0 -6 -4
-9 -8z"/>
<path d="M3693 145 c0 -6 8 -11 18 -11 9 0 15 5 12 11 -2 7 -10 12 -17 12 -7
0 -13 -5 -13 -12z"/>
<path d="M3930 149 c0 -5 5 -7 10 -4 6 3 10 8 10 11 0 2 -4 4 -10 4 -5 0 -10
-5 -10 -11z"/>
<path d="M3251 143 c-1 -17 16 -25 25 -12 4 7 3 9 -4 5 -5 -3 -13 0 -15 6 -4
9 -6 10 -6 1z"/>
<path d="M3160 130 c-9 -6 -10 -10 -3 -10 6 0 15 5 18 10 8 12 4 12 -15 0z"/>
<path d="M3496 131 c-3 -5 2 -15 12 -22 15 -12 16 -12 5 2 -7 9 -10 19 -6 22
3 4 4 7 0 7 -3 0 -8 -4 -11 -9z"/>
<path d="M3760 130 c-9 -6 -10 -10 -3 -10 6 0 15 5 18 10 8 12 4 12 -15 0z"/>
<path d="M3633 115 c0 -8 4 -12 9 -9 5 3 6 10 3 15 -9 13 -12 11 -12 -6z"/>
</g>
</svg>
