<?xml version="1.0" standalone="no"?>
<!DOCTYPE svg PUBLIC "-//W3C//DTD SVG 20010904//EN"
 "http://www.w3.org/TR/2001/REC-SVG-20010904/DTD/svg10.dtd">
<svg version="1.0" xmlns="http://www.w3.org/2000/svg"
 width="1435.000000pt" height="1435.000000pt" viewBox="0 0 1435.000000 1435.000000"
 preserveAspectRatio="xMidYMid meet">
<metadata>
Created by potrace 1.14, written by Peter Selinger 2001-2017
</metadata>
<g transform="translate(0.000000,1435.000000) scale(0.100000,-0.100000)"
fill="#000000" stroke="none">
<path d="M6528 11713 c12 -2 30 -2 40 0 9 3 -1 5 -23 4 -22 0 -30 -2 -17 -4z"/>
<path d="M6445 11694 l-30 -14 34 5 c18 3 38 5 43 5 5 0 6 5 3 10 -8 13 -14
12 -50 -6z"/>
<path d="M6248 11673 c7 -3 16 -2 19 1 4 3 -2 6 -13 5 -11 0 -14 -3 -6 -6z"/>
<path d="M6274 11656 c-29 -12 -63 -29 -75 -38 -21 -15 -16 -14 36 3 57 19
104 45 94 52 -2 2 -27 -6 -55 -17z"/>
<path d="M6380 11670 c-8 -5 -10 -10 -5 -10 6 0 17 5 25 10 8 5 11 10 5 10 -5
0 -17 -5 -25 -10z"/>
<path d="M6601 11670 c-101 -10 -136 -18 -83 -19 17 -1 32 -5 32 -9 0 -5 33
-3 73 4 80 15 162 18 117 5 -19 -6 -8 -9 45 -14 100 -11 209 -46 287 -94 21
-13 46 -23 55 -23 14 0 15 -2 5 -9 -11 -6 -2 -18 33 -47 25 -22 65 -64 87 -94
l41 -55 -69 66 c-92 88 -160 142 -212 169 -39 21 -44 21 -67 6 -22 -15 -26
-14 -58 4 -19 12 -59 25 -88 30 -69 12 -93 17 -153 32 -39 10 -50 10 -54 0 -2
-6 -17 -12 -33 -12 -22 0 -29 -5 -29 -20 0 -13 -9 -21 -27 -25 -36 -7 -187
-44 -210 -51 -17 -5 -17 -5 0 9 9 8 66 27 125 43 59 16 98 30 88 32 -66 13
-421 -137 -496 -210 -31 -31 -142 -86 -154 -76 -2 1 -13 -6 -25 -16 -12 -11
-21 -16 -21 -12 0 5 -25 -15 -57 -44 -60 -55 -99 -86 -148 -116 l-30 -19 30
37 c17 20 35 37 41 37 13 1 70 71 58 71 -7 0 -18 -10 -94 -81 -18 -16 -53 -44
-78 -61 -26 -17 -61 -43 -78 -57 -17 -14 -66 -51 -108 -81 -42 -30 -98 -74
-123 -97 -26 -24 -50 -43 -54 -43 -4 0 -14 -17 -22 -39 -9 -21 -23 -41 -31
-44 -14 -6 -76 -116 -76 -134 0 -4 15 18 34 49 18 32 35 60 38 64 13 13 -2
-64 -21 -109 -12 -27 -19 -58 -16 -70 4 -12 -1 -39 -10 -60 -9 -21 -14 -46
-11 -55 3 -9 1 -24 -5 -32 -8 -12 -9 -9 -4 10 l6 25 -15 -25 c-18 -29 -23 -66
-6 -40 16 24 12 -1 -9 -58 -15 -39 -18 -67 -14 -108 6 -56 23 -57 23 -2 0 35
29 110 40 103 5 -3 11 8 15 25 6 29 25 52 25 30 0 -36 -34 -140 -46 -140 -9 0
-14 -11 -13 -32 0 -28 2 -30 9 -13 7 17 9 16 9 -10 0 -16 -2 -41 -6 -55 -7
-24 -8 -23 -14 10 -8 43 -2 -161 9 -283 7 -90 25 -121 30 -55 2 26 7 35 16 32
33 -12 36 87 4 107 -11 7 16 58 39 72 7 4 13 17 13 27 0 11 5 20 11 20 5 0 7
5 4 10 -3 6 -2 10 3 10 12 0 25 30 17 38 -3 3 -12 -4 -21 -16 -18 -26 -34 -29
-34 -7 0 9 11 20 25 25 14 5 28 18 31 27 6 18 27 67 48 113 6 14 23 30 36 37
14 7 18 13 10 13 -23 0 12 31 38 33 11 0 19 4 16 8 -2 4 16 23 41 44 25 20 45
33 45 29 0 -4 7 1 16 12 15 18 15 18 10 0 -6 -17 41 21 106 86 23 23 78 51 86
43 4 -3 -32 -43 -78 -87 -59 -56 -75 -76 -52 -64 17 9 32 20 32 24 0 4 11 12
25 19 29 13 29 13 10 -23 -8 -16 -15 -23 -15 -16 0 7 -5 10 -10 7 -6 -4 -8
-11 -5 -16 4 -5 0 -9 -8 -9 -8 0 -23 -8 -35 -17 -11 -10 -29 -25 -39 -34 -10
-8 -24 -14 -29 -12 -6 2 -23 -3 -39 -11 -16 -8 -32 -13 -37 -10 -4 3 -8 1 -8
-4 0 -5 -20 -19 -45 -32 -31 -16 -47 -31 -51 -49 -3 -14 -8 -34 -11 -44 -4
-16 -2 -17 16 -8 17 9 20 9 15 -3 -3 -8 -16 -17 -29 -20 -32 -8 -42 -43 -18
-61 11 -9 13 -14 5 -15 -11 0 -31 -36 -36 -65 -1 -5 -6 -17 -11 -25 -5 -8 -8
-25 -6 -37 1 -16 -3 -23 -13 -23 -9 0 -16 -4 -16 -10 0 -5 6 -10 14 -10 20 0
31 -21 16 -30 -7 -4 -14 -25 -17 -46 -2 -21 -9 -42 -16 -46 -9 -6 -9 -8 1 -8
15 0 17 -77 1 -82 -14 -5 -28 -72 -29 -137 0 -46 2 -52 15 -41 16 13 21 35 6
26 -5 -4 -7 3 -4 14 7 26 20 26 28 -1 5 -14 1 -25 -11 -34 -13 -9 -19 -26 -18
-52 0 -53 24 -137 36 -125 6 6 5 18 -2 32 -12 23 -1 48 18 36 9 -6 8 -70 -3
-114 -7 -29 4 -49 16 -31 15 22 59 -38 55 -73 -4 -35 -1 -35 19 0 l16 27 -4
-30 c-2 -16 -2 -24 0 -17 8 21 29 13 31 -13 1 -15 -3 -25 -12 -25 -8 0 -16
-16 -20 -37 -8 -51 -6 -74 4 -43 l8 25 1 -27 c2 -44 11 -60 27 -47 11 9 14 8
14 -4 0 -18 5 -22 44 -31 26 -6 28 -5 23 14 -8 31 1 49 22 43 15 -4 19 4 25
47 4 29 13 62 21 74 8 12 12 37 10 58 -2 21 0 40 5 43 4 3 6 36 4 75 -2 40 1
70 6 70 6 0 10 9 10 21 0 11 -5 17 -10 14 -6 -4 -8 -11 -5 -16 4 -5 1 -9 -6
-9 -7 0 -10 -11 -7 -29 3 -19 0 -27 -7 -25 -13 6 -51 -118 -61 -198 -10 -85
-28 -74 -20 12 6 58 5 69 -7 64 -12 -4 -13 2 -6 38 4 24 8 49 9 55 0 8 11 11
29 9 25 -3 30 1 35 26 3 16 13 45 22 63 13 28 13 37 3 57 l-13 23 -7 -30 -7
-30 -1 32 c-1 21 5 36 17 42 10 7 12 11 4 11 -9 0 -11 7 -8 20 3 11 9 30 12
43 l6 22 -19 -22 c-22 -25 -39 -76 -49 -148 -6 -41 -8 -46 -14 -25 -3 14 -3
41 2 60 4 19 7 49 7 65 -1 32 -3 28 -13 -18 -4 -15 -11 -25 -16 -22 -6 4 -7
11 -4 17 4 7 2 8 -4 4 -7 -4 -12 -12 -12 -18 0 -16 -49 -58 -55 -47 -3 5 5 21
19 36 15 15 26 33 26 39 0 26 60 144 73 144 8 0 20 12 27 28 11 22 14 24 17
10 5 -18 23 -25 23 -9 0 15 53 71 67 71 23 0 13 -24 -27 -65 -41 -41 -52 -69
-25 -59 13 5 14 2 5 -21 -13 -33 -13 -32 4 -38 10 -4 13 -1 10 7 -3 7 2 16 10
19 9 4 16 13 16 22 0 8 4 15 9 15 5 0 13 10 17 23 3 12 15 34 26 50 17 24 18
28 3 33 -12 5 -13 9 -3 21 9 11 9 17 -3 25 -9 6 -10 11 -3 14 9 4 9 11 0 29
-10 23 -36 35 -36 17 0 -4 -9 -8 -19 -8 -17 0 -18 3 -7 26 14 26 11 50 -5 50
-6 0 -7 -4 -4 -10 3 -5 -3 -10 -15 -10 -12 0 -18 -4 -15 -10 3 -5 -3 -27 -15
-49 -24 -48 -25 -55 -5 -47 18 7 18 5 3 -31 -6 -15 -11 -30 -11 -33 0 -3 -20
-22 -44 -44 l-43 -39 6 32 c5 24 3 31 -9 31 -16 0 -67 -59 -67 -77 0 -16 -39
-101 -49 -107 -5 -3 2 20 15 51 16 40 20 61 13 70 -7 8 -5 21 6 42 8 17 15 33
15 36 -1 21 2 25 16 25 8 0 13 4 9 10 -3 5 -13 7 -23 4 -15 -5 -15 -4 -2 6 11
9 12 13 3 17 -8 3 -11 14 -7 29 10 41 -10 27 -29 -20 -25 -61 -45 -76 -64 -51
-8 11 -11 30 -8 43 4 15 0 24 -10 28 -20 8 -19 31 3 43 14 9 15 12 3 20 -11 7
-11 14 6 37 11 16 26 45 33 64 7 19 18 41 24 49 8 10 8 15 -1 18 -22 8 -15 23
33 71 26 26 44 39 41 29 -5 -14 -2 -16 20 -11 18 5 24 4 19 -5 -4 -6 -12 -8
-18 -5 -6 4 -8 -1 -3 -16 5 -14 3 -20 -3 -16 -6 3 -18 -8 -26 -26 -12 -23 -13
-34 -5 -39 14 -8 109 89 109 112 0 9 7 20 15 23 9 3 21 20 27 36 6 17 13 29
15 26 9 -8 42 19 69 55 13 18 24 30 24 26 0 -13 38 31 44 51 4 11 13 26 21 32
8 7 15 21 15 32 0 10 4 17 9 13 5 -3 12 -1 16 4 3 6 -3 15 -14 21 -17 9 -19 8
-15 -5 4 -10 0 -15 -10 -15 -9 0 -16 4 -16 10 0 5 -7 6 -17 3 -11 -4 -14 -3
-9 5 4 7 14 12 22 12 8 0 14 5 14 11 0 8 5 7 16 -2 13 -11 17 -11 24 1 5 8 20
31 34 50 14 19 39 54 55 78 16 24 51 65 78 91 54 54 194 161 210 161 6 0 17 7
24 17 8 9 48 33 90 53 41 20 86 44 99 53 14 9 34 17 45 17 12 0 25 4 31 9 11
12 148 41 192 41 18 0 32 -5 32 -12 0 -9 3 -9 12 0 14 14 48 16 48 3 0 -5 14
-16 31 -25 28 -14 32 -14 52 4 14 14 24 17 33 9 9 -7 14 -4 19 12 4 12 10 18
14 13 3 -5 22 -11 41 -13 19 -1 37 -7 38 -12 5 -12 49 -12 56 0 3 5 15 7 26 4
16 -4 19 -2 14 11 -4 11 -1 16 11 16 11 0 15 -5 11 -15 -5 -14 2 -17 32 -14 4
0 6 8 4 17 -2 10 0 13 5 6 8 -11 114 -14 123 -3 3 4 15 3 28 -2 15 -6 22 -17
22 -34 0 -25 10 -32 24 -17 4 4 12 7 17 7 5 0 8 2 7 5 -2 3 7 19 20 37 12 17
22 34 22 37 0 16 26 32 45 28 12 -2 29 3 38 12 18 18 37 21 37 6 0 -7 6 -7 18
-1 42 23 113 29 120 10 2 -5 10 -9 18 -9 19 0 18 26 -1 34 -8 3 -15 10 -15 17
0 15 -172 178 -188 179 -7 0 -10 5 -6 12 4 6 3 8 -4 4 -5 -3 -19 9 -31 26 -82
134 -340 263 -541 273 -47 2 -127 0 -179 -5z m212 -7 c-7 -2 -21 -2 -30 0 -10
3 -4 5 12 5 17 0 24 -2 18 -5z m-148 -73 c50 -20 50 -20 10 -13 -22 3 -57 6
-77 5 -43 -2 -48 4 -15 18 30 12 26 12 82 -10z m80 -38 c-3 -3 -11 0 -18 7 -9
10 -8 11 6 5 10 -3 15 -9 12 -12z m265 -23 c0 -5 -11 -3 -25 3 -14 6 -25 15
-25 19 0 5 11 3 25 -3 14 -6 25 -15 25 -19z m-601 -13 c-8 -8 -113 -45 -117
-42 -2 2 21 13 50 25 51 19 76 26 67 17z m606 -30 c15 1 24 0 21 -3 -3 -4 0
-13 6 -22 10 -12 8 -12 -8 2 -26 21 -38 22 -30 1 4 -11 -2 -8 -19 7 -13 13
-25 28 -25 32 0 5 6 2 14 -6 8 -8 27 -13 41 -11z m203 -25 c12 -6 22 -17 22
-23 0 -6 -8 -4 -18 5 -10 10 -22 17 -25 17 -9 0 -47 38 -47 47 0 3 10 -3 23
-14 12 -11 32 -26 45 -32z m-323 21 c-3 -3 -11 0 -18 7 -9 10 -8 11 6 5 10 -3
15 -9 12 -12z m206 -18 c18 -19 57 -53 86 -75 28 -22 59 -52 69 -67 14 -22 8
-19 -32 15 -89 75 -179 162 -168 163 5 0 26 -16 45 -36z m-614 6 c40 -12 78
-20 85 -19 7 1 20 0 28 -4 8 -3 40 -13 70 -22 57 -17 98 -41 88 -51 -4 -3 -21
2 -38 11 -18 9 -50 23 -72 31 -36 13 -39 12 -28 -2 11 -12 2 -11 -39 5 -28 12
-75 23 -104 25 -97 7 -103 9 -52 16 l50 7 -60 2 c-54 3 -56 8 -6 20 3 1 38 -8
78 -19z m-124 -27 c-7 -2 -19 -2 -25 0 -7 3 -2 5 12 5 14 0 19 -2 13 -5z m958
-75 c11 -16 16 -28 10 -28 -6 0 -11 4 -11 9 0 4 -16 23 -35 42 -19 19 -35 41
-35 49 0 15 24 -10 71 -72z m-1005 65 c-8 -9 -94 -32 -116 -32 -24 0 72 37 99
38 13 1 21 -2 17 -6z m804 -56 c0 -6 -9 -2 -20 8 -11 10 -20 23 -20 28 0 6 9
2 20 -8 11 -10 20 -23 20 -28z m-515 13 c3 -5 2 -10 -4 -10 -5 0 -13 5 -16 10
-3 6 -2 10 4 10 5 0 13 -4 16 -10z m-60 -51 c39 -12 64 -24 58 -26 -7 -3 -34
2 -60 10 -27 9 -88 18 -138 21 -67 4 -79 3 -48 -4 69 -14 87 -30 28 -25 -36 4
-44 3 -30 -4 11 -5 32 -10 47 -10 15 -1 29 -5 32 -10 3 -5 -23 -6 -60 -3 -50
4 -68 1 -74 -9 -7 -11 -10 -10 -16 4 -8 21 -44 23 -44 2 0 -9 8 -18 18 -21 47
-15 55 -23 17 -17 -22 3 -44 8 -50 11 -5 4 -23 5 -40 3 -17 -1 -43 3 -58 8
-34 13 -99 0 -172 -35 -99 -47 -114 -76 -24 -50 60 18 103 21 94 6 -3 -5 -18
-10 -32 -10 -48 0 -16 -11 38 -13 42 -2 54 -6 57 -19 3 -15 -4 -18 -37 -20
-23 -1 -53 -3 -68 -4 -34 -3 -172 -40 -180 -48 -4 -3 19 -6 51 -6 36 0 55 -4
51 -10 -3 -5 -39 -10 -78 -10 -45 0 -81 -6 -97 -15 -14 -8 -33 -18 -43 -21
-11 -4 -16 -13 -12 -24 4 -12 -6 -28 -30 -49 -20 -17 -39 -31 -44 -31 -4 0
-41 -31 -82 -70 -41 -38 -78 -70 -84 -70 -5 0 4 12 21 28 64 55 203 214 198
226 -3 7 5 21 17 32 l22 19 -19 -30 -19 -30 32 23 c17 12 35 22 40 22 5 0 20
8 33 17 l24 17 -34 7 c-28 6 -42 2 -84 -26 -28 -18 -62 -44 -76 -56 -14 -13
-50 -44 -80 -68 -53 -42 -82 -70 -212 -194 -32 -31 -58 -49 -58 -41 0 7 67 75
150 150 82 75 148 140 147 143 -1 3 15 27 37 53 37 44 144 108 180 108 17 0
106 37 106 44 0 3 -7 3 -15 0 -8 -4 -15 -3 -15 0 0 9 84 50 97 48 7 -2 23 4
35 12 34 22 232 77 323 90 91 14 157 7 260 -25z m302 -4 c0 -8 -4 -15 -9 -15
-10 0 -11 14 -1 23 9 10 10 9 10 -8z m-752 -102 c-11 -2 -35 -8 -54 -13 -19
-5 -30 -5 -25 -1 11 11 41 19 74 19 19 0 20 -1 5 -5z m83 0 c-10 -2 -26 -2
-35 0 -10 3 -2 5 17 5 19 0 27 -2 18 -5z m92 -13 c11 -8 5 -9 -20 -5 -19 3
-36 8 -39 11 -9 9 45 3 59 -6z m-780 -183 c0 -2 -12 -14 -27 -28 l-28 -24 24
28 c23 25 31 32 31 24z m-80 -72 c-13 -14 -26 -23 -28 -20 -4 4 38 44 47 45 3
0 -6 -11 -19 -25z m29 -38 c-35 -35 -66 -61 -69 -59 -3 3 1 7 8 9 6 3 12 10
12 17 0 6 8 18 18 26 69 58 84 70 89 70 3 0 -23 -28 -58 -63z m61 -21 c0 -2
-12 -11 -27 -20 l-28 -17 24 20 c23 21 31 25 31 17z m-295 -116 c-15 -16 -38
-46 -51 -67 -13 -21 -24 -32 -24 -25 0 22 41 96 63 114 33 26 42 9 12 -22z
m470 20 c-3 -5 -11 -10 -17 -10 -6 0 -38 -17 -71 -37 -52 -31 -58 -38 -41 -45
18 -7 18 -8 -1 -5 -11 1 -58 -21 -105 -49 -47 -28 -96 -56 -110 -63 -24 -11
-24 -11 -5 4 29 23 115 81 155 105 19 11 67 41 105 65 67 42 103 57 90 35z
m-335 -33 c0 -2 -10 -12 -22 -23 l-23 -19 19 23 c18 21 26 27 26 19z m20 -52
c-7 -9 -15 -13 -19 -10 -3 3 1 10 9 15 21 14 24 12 10 -5z m-67 -55 c-22 -21
-37 -40 -32 -42 5 -2 -14 -25 -43 -53 -28 -27 -48 -42 -45 -32 4 9 2 17 -3 17
-5 0 -10 -8 -12 -17 -2 -12 -6 -14 -11 -6 -5 7 26 42 83 92 91 82 140 114 63
41z m67 22 c0 -5 -19 -21 -42 -35 l-43 -28 37 36 c39 36 48 41 48 27z m-130
-6 c0 -2 -8 -10 -17 -17 -16 -13 -17 -12 -4 4 13 16 21 21 21 13z m255 -146
c-3 -5 -13 -10 -21 -10 -8 0 -12 5 -9 10 3 6 13 10 21 10 8 0 12 -4 9 -10z
m43 -49 c-25 -32 -49 -47 -45 -29 4 21 39 51 65 57 2 1 -7 -12 -20 -28z m-127
0 c-7 -5 -11 -13 -8 -18 3 -5 -7 -10 -23 -10 -17 0 -30 1 -30 3 0 6 65 42 69
38 3 -3 -1 -9 -8 -13z m-44 -61 c4 -13 3 -13 -6 0 -10 13 -11 13 -11 0 0 -8
-25 -29 -55 -47 -60 -35 -75 -29 -22 8 17 13 38 31 45 42 16 21 43 19 49 -3z
m-72 -98 c-3 -3 -11 0 -18 7 -9 10 -8 11 6 5 10 -3 15 -9 12 -12z m135 -88 c0
-9 -90 -45 -100 -39 -19 12 3 34 38 38 21 2 43 4 50 5 6 1 12 -1 12 -4z m-159
-137 c-10 -9 -11 -8 -5 6 3 10 9 15 12 12 3 -3 0 -11 -7 -18z m-176 -177 c3
-5 1 -10 -4 -10 -6 0 -11 5 -11 10 0 6 2 10 4 10 3 0 8 -4 11 -10z m15 -60 c0
-5 -5 -10 -11 -10 -5 0 -7 5 -4 10 3 6 8 10 11 10 2 0 4 -4 4 -10z m186 -134
c-8 -20 -17 -36 -20 -36 -6 0 1 25 17 57 17 36 20 19 3 -21z m238 25 c3 -5 -1
-14 -8 -20 -12 -10 -13 -8 -9 8 6 23 9 25 17 12z m-134 -76 c0 -2 -11 -21 -25
-41 -29 -42 -32 -37 -9 12 14 28 34 46 34 29z m-110 -36 c0 -5 -4 -9 -8 -9 -5
0 -9 7 -9 15 0 8 4 12 9 9 4 -3 8 -9 8 -15z m-70 -16 c0 -5 -11 -21 -25 -38
l-25 -30 17 38 c15 33 33 49 33 30z m-24 -194 c-15 -34 -15 -34 -16 -6 0 15 5
27 10 27 6 0 10 8 11 18 0 9 3 12 5 6 2 -6 -2 -26 -10 -45z m274 -46 c0 -22
-2 -25 -10 -13 -13 20 -13 40 0 40 6 0 10 -12 10 -27z m-243 -95 c-3 -8 -6 -5
-6 6 -1 11 2 17 5 13 3 -3 4 -12 1 -19z m113 -18 c0 -11 -4 -20 -9 -20 -7 0
-8 17 -2 38 4 10 11 -2 11 -18z m43 -210 c-3 -12 -8 -19 -11 -16 -5 6 5 36 12
36 2 0 2 -9 -1 -20z m27 -86 c0 -8 -5 -12 -10 -9 -6 4 -8 11 -5 16 9 14 15 11
15 -7z"/>
<path d="M6253 11333 c9 -2 25 -2 35 0 9 3 1 5 -18 5 -19 0 -27 -2 -17 -5z"/>
<path d="M5806 11149 c-27 -4 -56 -15 -65 -25 -15 -15 -14 -16 14 -10 76 18
105 28 105 36 0 6 -1 9 -2 9 -2 -1 -25 -5 -52 -10z"/>
<path d="M5665 11116 c-30 -14 -96 -76 -80 -76 4 0 26 15 49 33 23 19 50 39
61 45 28 16 7 14 -30 -2z"/>
<path d="M5646 10973 c-6 -14 -5 -15 5 -6 7 7 10 15 7 18 -3 3 -9 -2 -12 -12z"/>
<path d="M5229 10613 c-13 -16 -12 -17 4 -4 16 13 21 21 13 21 -2 0 -10 -8
-17 -17z"/>
<path d="M7193 11672 c4 -6 22 -14 40 -17 17 -4 53 -18 79 -31 26 -13 58 -24
70 -24 13 0 30 -5 38 -11 11 -8 8 -9 -15 -4 -41 9 -23 -7 38 -33 46 -20 59
-18 35 6 -7 7 -8 12 -3 12 5 0 24 -14 41 -31 28 -27 32 -29 27 -11 -9 35 -50
55 -247 119 -44 14 -86 28 -94 31 -10 3 -13 1 -9 -6z"/>
<path d="M7308 11673 c6 -2 18 -2 25 0 6 3 1 5 -13 5 -14 0 -19 -2 -12 -5z"/>
<path d="M6147 11645 c-38 -12 -74 -28 -80 -34 -9 -9 -7 -11 8 -5 11 4 25 10
30 15 6 4 31 10 57 14 26 4 53 13 59 21 15 18 8 17 -74 -11z"/>
<path d="M7019 11656 c7 -8 56 -40 110 -70 54 -31 126 -82 162 -116 35 -33 76
-68 90 -77 14 -8 33 -30 43 -47 9 -18 30 -40 45 -49 15 -9 46 -36 69 -61 23
-25 50 -50 61 -56 25 -13 61 -13 61 0 0 16 40 12 46 -5 4 -9 19 -15 40 -15 19
0 34 -5 34 -10 0 -6 6 -5 14 2 8 8 10 15 4 19 -5 3 -8 8 -6 11 1 2 -14 24 -35
48 -23 27 -33 35 -26 20 11 -23 11 -24 -4 -11 -9 7 -27 33 -39 57 -12 24 -27
44 -35 44 -7 0 -24 17 -37 38 -23 37 -118 132 -132 132 -3 0 -1 -7 6 -15 19
-23 3 -31 -19 -11 -11 10 -24 15 -30 11 -11 -6 -84 46 -75 54 2 2 18 -8 34
-24 16 -16 32 -26 36 -23 8 9 -57 55 -86 61 -14 2 -55 16 -92 31 -38 14 -68
22 -68 18 0 -4 24 -20 53 -36 78 -43 186 -128 245 -191 29 -32 52 -60 52 -62
0 -3 9 -16 20 -30 22 -28 20 -45 -2 -22 -7 8 -39 45 -72 82 -64 74 -169 160
-181 149 -5 -4 -5 -2 -1 5 4 7 -7 22 -26 36 -45 33 -147 87 -167 87 -9 0 -36
9 -60 20 -31 14 -40 16 -32 6z m543 -279 c14 -27 1 -34 -20 -11 -35 40 -82
103 -82 110 0 11 89 -77 102 -99z m-97 -17 c10 -11 16 -20 13 -20 -3 0 -13 9
-23 20 -10 11 -16 20 -13 20 3 0 13 -9 23 -20z"/>
<path d="M7085 11662 c6 -6 33 -13 60 -17 36 -4 45 -3 34 4 -23 15 -107 26
-94 13z"/>
<path d="M7395 11650 c3 -5 8 -10 11 -10 2 0 4 5 4 10 0 6 -5 10 -11 10 -5 0
-7 -4 -4 -10z"/>
<path d="M6458 11643 c7 -3 16 -2 19 1 4 3 -2 6 -13 5 -11 0 -14 -3 -6 -6z"/>
<path d="M7589 11635 c18 -8 36 -15 40 -15 13 1 -45 29 -59 29 -8 0 0 -6 19
-14z"/>
<path d="M6408 11633 c7 -3 16 -2 19 1 4 3 -2 6 -13 5 -11 0 -14 -3 -6 -6z"/>
<path d="M6325 11610 c-13 -6 -15 -9 -5 -9 8 0 22 4 30 9 18 12 2 12 -25 0z"/>
<path d="M6135 11599 c-4 -5 -11 -7 -16 -4 -5 4 -9 1 -9 -4 0 -12 16 -13 44
-2 17 7 18 8 3 14 -9 3 -19 2 -22 -4z"/>
<path d="M7577 11574 c-8 -8 9 -24 54 -52 19 -12 44 -31 55 -44 15 -17 5 -14
-50 16 l-69 37 29 -35 c28 -33 54 -50 38 -24 -16 25 54 -33 113 -94 68 -72
136 -155 189 -236 20 -30 38 -51 41 -49 5 5 -34 87 -72 151 -12 21 -25 34 -27
30 -3 -5 -3 -3 -1 5 5 21 -61 132 -113 190 -26 28 -67 66 -91 82 -42 29 -45
30 -57 13 -12 -16 -14 -16 -23 0 -5 9 -12 14 -16 10z"/>
<path d="M7710 11566 c0 -2 17 -14 38 -25 l37 -21 -30 25 c-28 23 -45 31 -45
21z"/>
<path d="M8024 11541 c7 -11 46 -35 46 -28 0 3 -12 12 -26 22 -15 9 -23 12
-20 6z"/>
<path d="M6170 11510 c-8 -5 -10 -10 -5 -10 6 0 17 5 25 10 8 5 11 10 5 10 -5
0 -17 -5 -25 -10z"/>
<path d="M8160 11480 c97 -89 136 -128 162 -164 20 -29 28 -34 28 -20 0 20
-131 153 -190 193 l-35 23 35 -32z"/>
<path d="M7560 11474 c14 -9 51 -44 83 -77 32 -33 60 -58 62 -55 9 9 -132 148
-150 148 -17 0 -16 -2 5 -16z"/>
<path d="M7860 11481 c0 -5 7 -15 17 -22 15 -13 15 -12 4 9 -12 23 -21 28 -21
13z"/>
<path d="M7915 11450 c11 -21 76 -112 92 -130 21 -24 62 -83 75 -110 7 -14 29
-50 49 -80 19 -30 38 -64 42 -74 4 -10 10 -17 13 -14 2 3 -6 27 -20 54 -13 27
-36 76 -52 109 -47 101 -124 211 -124 177 0 -6 5 -14 10 -17 6 -3 10 -12 10
-18 0 -7 -13 8 -29 33 -26 42 -85 104 -66 70z"/>
<path d="M7929 11363 c35 -40 66 -73 68 -73 12 0 -66 96 -97 119 -26 19 -19 8
29 -46z"/>
<path d="M5865 11369 c-27 -16 -81 -45 -118 -65 -37 -20 -66 -39 -63 -41 9
-10 236 118 236 133 0 5 3 7 -55 -27z"/>
<path d="M7705 11370 c10 -11 20 -20 23 -20 3 0 -3 9 -13 20 -10 11 -20 20
-23 20 -3 0 3 -9 13 -20z"/>
<path d="M7730 11320 c20 -13 33 -13 25 0 -3 6 -14 10 -23 10 -15 0 -15 -2 -2
-10z"/>
<path d="M7890 11311 c0 -5 5 -13 10 -16 6 -3 10 -2 10 4 0 5 -4 13 -10 16 -5
3 -10 2 -10 -4z"/>
<path d="M7787 11265 c9 -19 19 -33 21 -30 7 7 -19 65 -29 65 -5 0 -1 -16 8
-35z"/>
<path d="M7910 11270 c0 -5 5 -10 11 -10 5 0 7 5 4 10 -3 6 -8 10 -11 10 -2 0
-4 -4 -4 -10z"/>
<path d="M8295 11250 c10 -11 20 -20 23 -20 3 0 -3 9 -13 20 -10 11 -20 20
-23 20 -3 0 3 -9 13 -20z"/>
<path d="M7950 11256 c0 -2 8 -10 18 -17 15 -13 16 -12 3 4 -13 16 -21 21 -21
13z"/>
<path d="M8036 11210 c15 -28 34 -56 43 -63 12 -9 11 -5 -3 17 -10 16 -27 44
-38 63 -31 52 -32 39 -2 -17z"/>
<path d="M5607 11210 c-14 -11 -29 -20 -34 -20 -21 0 -130 -63 -153 -89 -14
-15 -43 -38 -65 -51 -65 -39 -212 -178 -224 -212 -15 -42 -6 -47 14 -9 8 17
20 31 27 31 6 0 34 23 62 52 28 28 91 77 140 109 65 42 84 58 70 61 -14 3 -8
8 19 16 39 11 83 40 150 99 40 36 36 46 -6 13z"/>
<path d="M7840 11223 c1 -11 60 -88 60 -78 0 9 -50 85 -56 85 -2 0 -4 -3 -4
-7z"/>
<path d="M7830 11191 c0 -6 4 -13 10 -16 6 -3 7 1 4 9 -7 18 -14 21 -14 7z"/>
<path d="M7960 11197 c0 -14 82 -168 87 -163 3 3 -8 33 -25 68 -30 63 -61 110
-62 95z"/>
<path d="M8246 11189 c4 -8 23 -38 41 -68 18 -30 33 -51 33 -45 0 14 -58 112
-71 120 -8 5 -9 3 -3 -7z"/>
<path d="M8371 11147 c21 -37 39 -56 39 -40 0 4 -14 24 -31 43 l-30 35 22 -38z"/>
<path d="M8194 11065 c2 -37 32 -105 46 -105 4 0 5 -13 2 -30 -2 -17 0 -30 6
-30 6 0 13 12 15 28 2 15 5 -1 6 -34 1 -45 5 -63 16 -68 8 -3 19 -17 25 -30 5
-14 25 -32 44 -41 23 -11 36 -24 36 -36 0 -11 6 -19 14 -19 7 0 19 -7 26 -15
18 -21 27 -19 42 13 17 36 12 73 -9 65 -12 -5 -14 -3 -8 6 5 10 2 11 -13 7
-21 -7 -22 -6 -38 87 -9 51 -23 47 -18 -5 2 -24 1 -35 -2 -25 -3 9 -10 17 -16
17 -7 0 -7 4 0 13 6 7 7 19 3 26 -6 9 -10 7 -14 -8 -3 -12 -12 -21 -20 -21
-18 0 -33 53 -21 72 6 9 3 9 -9 -1 -15 -12 -17 -11 -17 4 0 29 -40 85 -61 85
-13 0 -19 7 -20 23 0 12 -4 31 -9 42 -6 15 -7 9 -6 -20z"/>
<path d="M8120 11085 c0 -3 14 -31 30 -62 17 -31 30 -62 30 -69 0 -8 4 -14 9
-14 5 0 14 -15 21 -32 7 -18 14 -28 17 -21 2 7 -2 23 -9 36 -7 13 -30 56 -51
96 -33 63 -47 82 -47 66z"/>
<path d="M7060 11030 c0 -5 5 -10 11 -10 5 0 7 5 4 10 -3 6 -8 10 -11 10 -2 0
-4 -4 -4 -10z"/>
<path d="M8104 11015 c4 -16 12 -34 17 -39 5 -6 5 4 -1 24 -12 42 -25 55 -16
15z"/>
<path d="M8145 10985 c7 -33 12 -41 21 -33 3 4 -2 19 -11 35 l-16 28 6 -30z"/>
<path d="M8386 10963 c9 -35 33 -93 38 -93 3 0 -4 27 -16 60 -20 62 -34 81
-22 33z"/>
<path d="M8296 10967 c3 -10 9 -15 12 -12 3 3 0 11 -7 18 -10 9 -11 8 -5 -6z"/>
<path d="M8442 10885 c0 -11 4 -31 8 -45 l8 -25 0 25 c0 14 -3 34 -8 45 l-9
20 1 -20z"/>
<path d="M8480 10660 c0 -5 7 -7 15 -4 8 4 15 8 15 10 0 2 -7 4 -15 4 -8 0
-15 -4 -15 -10z"/>
<path d="M7056 10353 c-11 -11 -6 -23 9 -23 8 0 15 4 15 9 0 13 -16 22 -24 14z"/>
<path d="M5061 10254 c0 -11 3 -14 6 -6 3 7 2 16 -1 19 -3 4 -6 -2 -5 -13z"/>
<path d="M8694 10135 c19 -77 28 -105 35 -109 10 -7 -14 88 -29 111 -10 17
-11 16 -6 -2z"/>
<path d="M8658 10023 c33 -92 57 -138 91 -173 13 -13 14 -13 8 3 -4 10 -14 46
-22 80 -25 96 -72 187 -89 170 -3 -4 -6 -1 -6 5 0 7 -4 12 -9 12 -5 0 7 -44
27 -97z"/>
<path d="M5435 10090 c2 -12 -4 -29 -13 -38 -44 -44 -71 -88 -62 -102 13 -21
39 5 32 32 -4 17 -2 20 11 15 9 -3 19 -1 23 5 4 7 9 6 15 -3 7 -11 9 -11 9 2
0 9 11 27 24 41 32 36 42 63 19 53 -38 -15 -56 -18 -49 -7 3 6 2 13 -3 17 -6
3 -8 -4 -6 -15z"/>
<path d="M8756 10062 c-3 -5 1 -15 9 -22 16 -14 20 -3 6 19 -5 8 -11 9 -15 3z"/>
<path d="M8810 10018 c0 -9 5 -20 10 -23 13 -8 13 5 0 25 -8 13 -10 13 -10 -2z"/>
<path d="M5536 9983 c-15 -16 -38 -38 -52 -51 -26 -23 -26 -45 -1 -24 8 7 17
9 20 5 4 -3 7 -1 7 5 0 6 14 27 31 47 38 43 34 57 -5 18z"/>
<path d="M8807 9965 c-4 -8 -2 -26 3 -39 6 -16 5 -26 -1 -28 -12 -4 -1 -38 13
-38 5 0 8 24 5 55 -4 59 -11 75 -20 50z"/>
<path d="M5400 9919 c0 -5 5 -7 10 -4 6 3 10 8 10 11 0 2 -4 4 -10 4 -5 0 -10
-5 -10 -11z"/>
<path d="M8660 9884 c0 -43 22 -85 34 -66 4 7 2 12 -3 12 -6 0 -11 5 -11 11 0
5 5 7 10 4 15 -9 12 1 -10 42 l-20 38 0 -41z"/>
<path d="M5282 9895 c-12 -9 -22 -26 -22 -38 0 -21 1 -21 26 5 32 32 29 56 -4
33z"/>
<path d="M5333 9871 c-10 -16 -9 -20 7 -24 23 -6 30 0 30 25 0 24 -22 23 -37
-1z"/>
<path d="M8711 9794 c0 -11 3 -14 6 -6 3 7 2 16 -1 19 -3 4 -6 -2 -5 -13z"/>
<path d="M5113 9755 c0 -22 2 -30 4 -17 2 12 2 30 0 40 -3 9 -5 -1 -4 -23z"/>
<path d="M7735 9780 c-4 -6 -18 -7 -32 -4 -23 6 -25 4 -20 -15 3 -11 1 -21 -4
-21 -5 0 -9 -6 -9 -12 0 -7 -6 -24 -13 -38 -8 -14 -13 -35 -12 -47 1 -12 -2
-20 -7 -17 -11 7 -10 -3 2 -26 6 -12 6 -21 1 -25 -6 -3 -20 -26 -32 -50 -14
-27 -34 -50 -51 -57 -15 -7 -28 -16 -28 -19 0 -4 -11 -10 -24 -13 -67 -17
-127 -188 -90 -260 7 -16 14 -34 14 -41 0 -6 11 -21 25 -33 14 -12 25 -28 25
-35 0 -15 64 -77 79 -77 5 0 12 6 15 13 5 9 7 9 12 -1 3 -6 9 -10 14 -7 4 3
13 -2 20 -10 7 -8 23 -15 36 -15 16 0 24 -6 24 -18 0 -24 42 -38 125 -41 38
-1 75 -7 83 -13 9 -8 19 -7 38 2 19 11 27 11 36 2 7 -7 16 -12 20 -12 13 0 9
28 -4 33 -7 2 -10 7 -7 11 11 11 38 -5 32 -20 -3 -8 0 -14 6 -14 6 0 11 7 11
15 0 9 12 18 30 22 17 3 30 12 30 20 0 8 -4 12 -9 8 -5 -3 -16 3 -23 14 -8 11
-34 27 -58 37 -25 9 -52 23 -60 30 -12 12 -11 14 10 14 14 0 31 -4 38 -8 7 -5
25 -7 41 -4 24 3 27 8 26 33 -2 27 9 40 17 19 5 -14 66 19 73 40 3 9 23 24 45
33 38 15 39 14 55 -9 8 -13 22 -24 29 -24 8 0 21 -12 30 -26 19 -28 43 -27 38
2 -7 49 -13 64 -27 64 -8 0 -15 5 -15 11 0 6 -27 41 -61 77 -34 37 -67 80 -75
95 l-15 28 38 -16 c46 -19 84 -55 109 -101 19 -34 42 -48 30 -18 -3 9 -6 20
-6 24 0 17 -61 79 -107 110 -39 27 -93 48 -203 79 -16 5 -28 18 -34 40 l-9 33
-61 -5 c-34 -3 -50 -3 -36 0 14 2 32 10 40 17 18 15 47 27 75 31 11 2 28 6 38
10 10 4 17 3 17 -4 0 -7 8 -8 23 -3 12 5 31 8 42 8 11 -1 33 7 49 16 27 15 31
16 41 1 12 -16 35 -11 35 9 0 7 -6 6 -15 -2 -13 -11 -15 -8 -15 18 0 17 6 33
13 36 6 3 -1 4 -16 1 -19 -4 -26 -2 -22 5 3 5 1 10 -4 10 -6 0 -11 6 -11 13 0
8 -22 19 -55 27 -31 7 -58 17 -61 22 -3 5 -26 6 -50 2 -28 -4 -44 -2 -44 4 0
16 -56 25 -79 12 -18 -9 -21 -8 -21 7 0 10 -4 14 -8 8 -9 -13 -40 -15 -68 -5
-14 6 -26 5 -29 0z m-82 -245 c-3 -9 -8 -14 -10 -11 -3 3 -2 9 2 15 9 16 15
13 8 -4z m492 -272 c9 -13 14 -30 12 -36 -5 -13 -94 -40 -106 -32 -5 2 -4 24
2 48 9 40 12 43 43 44 25 1 37 -5 49 -24z m-381 -324 c3 -3 -4 -5 -14 -6 -11
-1 -20 2 -20 7 0 8 25 8 34 -1z"/>
<path d="M8740 9768 c0 -14 7 -31 16 -39 13 -11 14 -9 8 17 -9 40 -24 54 -24
22z"/>
<path d="M7650 9760 c-9 -16 -8 -20 5 -20 8 0 15 9 15 20 0 11 -2 20 -5 20 -2
0 -9 -9 -15 -20z"/>
<path d="M6520 9759 c-19 -5 -42 -6 -51 -3 -9 2 -29 -2 -45 -11 -16 -8 -41
-15 -56 -15 -35 0 -128 -20 -152 -32 -14 -8 -16 -12 -6 -18 7 -4 9 -13 6 -19
-4 -6 -11 -9 -16 -6 -20 12 -100 -40 -100 -65 0 -5 -9 -10 -20 -10 -13 0 -18
-5 -13 -16 3 -8 15 -14 27 -13 11 1 33 -1 47 -5 16 -5 43 0 77 13 49 20 55 20
90 5 20 -8 50 -14 67 -13 58 4 91 -1 111 -16 16 -12 17 -16 4 -24 -10 -7 -17
-6 -22 2 -6 9 -8 9 -8 -1 0 -7 -5 -10 -10 -7 -6 3 -17 -1 -26 -9 -8 -9 -25
-16 -36 -16 -12 0 -18 -3 -15 -7 9 -9 -35 -30 -75 -36 -125 -18 -298 -156
-298 -237 0 -9 -9 -28 -21 -41 -11 -13 -23 -36 -26 -52 -3 -15 -10 -30 -14
-33 -14 -8 0 -24 21 -24 23 0 90 31 90 41 0 4 16 13 36 19 21 7 33 17 31 24
-3 7 4 18 14 24 15 10 19 9 19 -1 0 -14 35 -47 49 -47 5 0 11 -5 13 -12 4 -10
23 -15 69 -17 9 -1 19 -8 23 -16 4 -10 -6 -18 -36 -27 l-41 -12 34 -12 c19 -6
37 -10 40 -8 4 2 12 -3 19 -11 9 -10 9 -15 1 -15 -6 0 -11 -13 -11 -29 0 -16
-6 -31 -15 -35 -8 -3 -15 -16 -15 -29 0 -23 2 -24 80 -24 44 0 83 4 86 8 10
16 24 9 24 -11 0 -11 5 -20 10 -20 6 0 10 9 10 20 0 11 5 20 10 20 6 0 10 -4
10 -9 0 -5 19 -9 43 -9 26 0 35 3 24 7 -16 6 -17 9 -4 19 10 9 22 9 46 1 32
-11 42 -29 16 -29 -9 0 -12 -6 -8 -16 6 -16 7 -16 18 0 7 9 24 16 39 16 23 0
31 9 27 32 0 6 98 34 111 30 11 -3 99 89 93 97 -2 5 7 6 20 3 16 -3 25 0 25 8
0 7 7 18 15 24 8 6 17 25 19 42 2 18 12 45 23 60 22 32 40 154 23 154 -6 0
-10 14 -10 30 0 17 -4 30 -10 30 -5 0 -10 7 -10 15 0 8 4 15 9 15 5 0 12 7 15
15 5 14 1 13 -25 -2 -26 -16 -31 -16 -39 -3 -5 8 -10 28 -10 44 l0 29 -19 -22
-20 -22 -12 23 c-7 13 -14 25 -14 28 0 3 -7 15 -14 28 -10 20 -10 26 2 35 22
18 28 69 11 91 -9 13 -14 15 -14 6 0 -10 -3 -11 -11 -3 -6 6 -18 9 -25 6 -8
-3 -14 1 -14 10 0 8 -7 21 -16 28 -13 11 -17 10 -26 -4 -9 -16 -11 -16 -36 4
-15 11 -27 26 -27 32 -1 7 -6 11 -13 10 -7 -2 -11 3 -9 10 3 19 -60 21 -79 2
-14 -13 -18 -14 -28 -2 -16 21 -36 25 -76 16z m340 -139 c0 -5 -2 -10 -4 -10
-3 0 -8 5 -11 10 -3 6 -1 10 4 10 6 0 11 -4 11 -10z m-715 -30 c3 -5 1 -10 -4
-10 -6 0 -11 5 -11 10 0 6 2 10 4 10 3 0 8 -4 11 -10z m117 -350 c10 0 10 2 1
8 -7 4 -9 13 -4 21 5 8 13 -2 23 -33 15 -46 11 -49 -24 -18 -12 10 -18 11 -18
4 0 -23 -18 -12 -24 15 -9 32 15 53 26 23 4 -11 13 -20 20 -20z m83 -170 c3
-5 -1 -10 -9 -10 -9 0 -16 5 -16 10 0 6 4 10 9 10 6 0 13 -4 16 -10z"/>
<path d="M8686 9699 c1 -39 5 -44 26 -37 9 3 9 12 -1 36 -19 46 -26 46 -25 1z"/>
<path d="M7559 9708 c-7 -27 -6 -65 3 -75 18 -22 28 -14 24 20 -3 17 -5 38 -5
45 -1 10 -19 18 -22 10z"/>
<path d="M8240 9640 c0 -5 7 -10 15 -10 8 0 15 5 15 10 0 6 -7 10 -15 10 -8 0
-15 -4 -15 -10z"/>
<path d="M8700 9621 c0 -14 5 -19 15 -14 17 6 15 25 -3 31 -7 2 -12 -5 -12
-17z"/>
<path d="M7600 9585 c-7 -9 -11 -18 -8 -20 3 -3 11 1 18 10 7 9 11 18 8 20 -3
3 -11 -1 -18 -10z"/>
<path d="M8209 9579 c-9 -5 -9 -9 -2 -9 6 0 18 -3 27 -6 9 -3 16 -2 16 4 0 15
-25 21 -41 11z"/>
<path d="M8691 9568 c0 -13 4 -32 9 -43 13 -32 23 5 11 38 -13 33 -21 35 -20
5z"/>
<path d="M8730 9576 c0 -8 5 -18 10 -21 6 -3 10 1 10 9 0 8 -4 18 -10 21 -5 3
-10 -1 -10 -9z"/>
<path d="M8909 9532 c5 -34 6 -35 9 -8 2 16 0 32 -5 37 -5 5 -7 -7 -4 -29z"/>
<path d="M8834 9544 c3 -9 6 -22 6 -30 0 -8 6 -14 13 -14 8 0 19 -10 25 -22 8
-17 11 -19 11 -6 1 9 4 24 7 32 5 12 1 16 -17 14 -18 -2 -25 3 -27 20 -2 12
-8 22 -14 22 -5 0 -7 -7 -4 -16z"/>
<path d="M6023 9543 c-22 -8 -14 -23 13 -23 15 0 24 5 22 12 -5 14 -18 18 -35
11z"/>
<path d="M6951 9524 c0 -11 3 -14 6 -6 3 7 2 16 -1 19 -3 4 -6 -2 -5 -13z"/>
<path d="M8790 9531 c0 -6 5 -13 10 -16 6 -4 8 -10 5 -15 -3 -5 -1 -11 5 -15
12 -8 11 -95 -2 -112 -10 -13 7 -28 22 -18 9 6 15 -30 11 -64 -2 -11 0 -11 12
0 12 12 12 18 1 46 -17 39 -17 46 -4 38 16 -10 12 38 -5 62 -8 12 -12 28 -9
36 3 9 -2 27 -11 41 -17 26 -35 34 -35 17z"/>
<path d="M8727 9470 c-5 -21 14 -100 24 -100 3 0 5 12 3 28 -2 15 -1 19 2 9 3
-9 10 -14 16 -10 8 4 9 0 5 -11 -4 -10 -7 -20 -7 -22 0 -3 -11 -9 -24 -13 -13
-5 -26 -18 -29 -29 -3 -15 -1 -19 9 -15 8 3 14 13 15 22 2 34 17 -36 17 -79 0
-38 -1 -41 -9 -20 -6 18 -7 12 -3 -20 4 -25 8 -47 9 -49 9 -9 25 13 25 35 0
18 4 23 13 18 9 -6 9 -4 1 7 -6 8 -14 36 -17 62 -4 39 -2 47 10 43 8 -3 11 -1
8 4 -3 6 -14 10 -23 10 -12 0 -13 3 -5 8 28 18 14 127 -17 135 -12 3 -20 -2
-23 -13z"/>
<path d="M8694 9413 c3 -21 6 -49 6 -63 1 -18 3 -21 9 -10 11 20 2 110 -11
110 -7 0 -8 -14 -4 -37z"/>
<path d="M5530 9409 c0 -5 5 -7 10 -4 6 3 10 8 10 11 0 2 -4 4 -10 4 -5 0 -10
-5 -10 -11z"/>
<path d="M7350 9336 c0 -2 7 -6 15 -10 8 -3 15 -1 15 4 0 6 -7 10 -15 10 -8 0
-15 -2 -15 -4z"/>
<path d="M5520 9265 c0 -15 4 -24 10 -20 6 3 10 12 10 20 0 8 -4 17 -10 20 -6
4 -10 -5 -10 -20z"/>
<path d="M8797 9252 c3 -12 9 -25 14 -28 14 -8 11 10 -6 32 -13 18 -14 18 -8
-4z"/>
<path d="M5210 9218 c0 -9 7 -19 16 -22 15 -6 15 -4 3 11 -7 10 -15 20 -16 22
-2 2 -3 -3 -3 -11z"/>
<path d="M5211 9164 c0 -11 3 -14 6 -6 3 7 2 16 -1 19 -3 4 -6 -2 -5 -13z"/>
<path d="M5237 9160 c3 -11 7 -20 9 -20 2 0 4 9 4 20 0 11 -4 20 -9 20 -5 0
-7 -9 -4 -20z"/>
<path d="M6230 9060 c0 -5 5 -10 11 -10 5 0 7 5 4 10 -3 6 -8 10 -11 10 -2 0
-4 -4 -4 -10z"/>
<path d="M5408 8924 c-5 -4 -8 -21 -8 -38 0 -21 3 -27 11 -19 6 6 9 23 7 38
-2 15 -6 23 -10 19z"/>
<path d="M5174 8833 c-11 -28 -14 -58 -11 -113 7 -103 15 -133 54 -218 14 -29
26 -71 27 -93 3 -100 26 10 26 126 -1 38 -8 74 -20 100 -11 22 -19 33 -20 25
0 -10 -8 -5 -23 14 -19 24 -23 40 -22 103 0 54 4 76 15 83 10 6 11 10 3 10 -7
0 -20 -17 -29 -37z"/>
<path d="M8899 8683 c-17 -51 -19 -62 -8 -68 5 -3 3 -14 -3 -25 -12 -19 -28
-18 -28 1 0 6 5 7 10 4 6 -3 10 -2 10 4 0 5 -5 13 -10 16 -6 4 -7 13 -1 24 7
13 5 20 -10 29 -18 11 -19 9 -19 -32 0 -24 6 -71 14 -103 8 -32 17 -71 21 -88
l8 -30 9 30 c4 17 9 53 10 80 0 28 4 55 8 60 11 14 18 125 9 131 -4 2 -13 -13
-20 -33z"/>
<path d="M5466 8553 c-7 -21 -64 -119 -87 -151 -9 -12 -19 -19 -24 -14 -4 4
-6 0 -3 -8 3 -8 -4 -28 -15 -44 -12 -17 -17 -31 -10 -33 5 -2 8 -15 5 -28 -7
-39 31 -64 97 -65 51 0 53 -1 49 -24 -4 -20 1 -27 24 -37 48 -20 52 -1 19 91
-23 61 -30 97 -28 140 1 32 5 53 8 48 11 -17 20 27 14 59 -10 43 -27 83 -35
83 -4 0 -10 -8 -14 -17z"/>
<path d="M6696 8440 c-4 -27 -11 -52 -16 -55 -5 -3 -7 -19 -4 -34 6 -28 1 -36
-38 -64 -10 -7 -19 -23 -20 -37 -3 -21 2 -26 25 -28 15 -2 27 -7 27 -11 0 -16
-41 -50 -55 -45 -8 4 -15 1 -15 -5 0 -6 -4 -11 -10 -11 -5 0 -10 7 -10 15 0 8
-5 15 -11 15 -6 0 -8 -7 -5 -16 3 -8 2 -12 -4 -9 -6 3 -10 1 -10 -5 0 -7 6
-10 14 -7 8 3 20 -1 26 -9 7 -8 22 -14 35 -14 31 0 37 -10 20 -37 -14 -21 -14
-23 0 -23 17 0 20 -16 5 -25 -18 -11 1 -26 23 -19 19 6 20 5 9 -9 -8 -10 -11
-25 -7 -38 6 -17 13 -20 35 -16 15 3 32 1 39 -6 8 -8 15 -6 27 11 13 19 18 21
31 10 12 -10 17 -9 28 5 7 9 18 17 25 17 8 0 11 9 7 26 -4 22 -2 25 18 20 14
-4 28 0 35 9 10 12 9 15 -4 15 -9 0 -16 6 -16 13 0 8 -3 8 -9 -2 -12 -19 -42
-6 -35 14 4 9 12 14 19 12 6 -3 17 10 24 29 7 19 19 34 27 34 16 0 36 43 29
62 -3 7 4 28 15 46 16 27 25 32 43 27 60 -17 61 -15 17 25 -39 35 -50 40 -79
36 -18 -3 -44 -12 -58 -21 -20 -13 -24 -23 -21 -53 3 -35 1 -37 -27 -40 -36
-3 -93 31 -113 68 -9 17 -12 50 -8 103 3 58 1 77 -9 77 -7 0 -15 -19 -19 -50z
m-51 -200 c3 -5 1 -10 -4 -10 -6 0 -11 5 -11 10 0 6 2 10 4 10 3 0 8 -4 11
-10z m-25 -90 c0 -5 -5 -10 -11 -10 -5 0 -7 5 -4 10 3 6 8 10 11 10 2 0 4 -4
4 -10z m210 -110 c0 -19 -13 -40 -24 -40 -7 0 -13 13 -13 29 0 22 4 27 19 23
10 -2 18 -8 18 -12z"/>
<path d="M8670 8449 c0 -20 7 -53 16 -74 15 -37 17 -142 2 -152 -18 -10 -7
-23 11 -13 11 5 32 10 46 10 15 0 37 8 48 18 25 20 34 52 15 52 -9 0 -9 3 2
10 12 7 11 15 -9 52 -35 62 -62 90 -76 78 -9 -8 -18 -2 -34 22 l-21 33 0 -36z"/>
<path d="M7627 8433 c-4 -3 -7 -13 -7 -22 1 -13 3 -13 11 2 11 19 8 33 -4 20z"/>
<path d="M7620 8360 c0 -11 4 -20 9 -20 5 0 7 9 4 20 -3 11 -7 20 -9 20 -2 0
-4 -9 -4 -20z"/>
<path d="M8892 8350 c0 -14 2 -19 5 -12 2 6 2 18 0 25 -3 6 -5 1 -5 -13z"/>
<path d="M7371 8325 c-19 -14 -30 -25 -23 -25 16 0 53 -41 46 -52 -3 -4 5 -8
18 -8 26 0 50 -13 50 -26 0 -5 22 -10 48 -11 41 -2 50 1 55 17 4 11 15 20 26
20 10 0 19 5 19 11 0 6 9 8 23 4 17 -5 19 -4 7 4 -8 6 -10 11 -4 11 7 0 15 7
18 16 3 9 2 12 -5 9 -6 -4 -13 2 -16 14 -7 26 -15 27 -30 1 -20 -30 -67 -51
-103 -43 -20 3 -27 9 -20 13 9 6 10 16 3 36 -13 41 -65 45 -112 9z"/>
<path d="M7815 8210 c3 -5 8 -10 11 -10 2 0 4 5 4 10 0 6 -5 10 -11 10 -5 0
-7 -4 -4 -10z"/>
<path d="M6512 8188 c3 -7 13 -15 22 -16 12 -3 17 1 14 10 -3 7 -13 15 -22 16
-12 3 -17 -1 -14 -10z"/>
<path d="M7661 8106 c-11 -13 -10 -20 3 -41 9 -14 20 -25 24 -26 4 0 15 -2 25
-4 24 -4 14 31 -17 63 -20 21 -24 21 -35 8z"/>
<path d="M6920 8099 c0 -5 5 -7 10 -4 6 3 10 8 10 11 0 2 -4 4 -10 4 -5 0 -10
-5 -10 -11z"/>
<path d="M6460 7915 c0 -8 2 -15 4 -15 2 0 6 7 10 15 3 8 1 15 -4 15 -6 0 -10
-7 -10 -15z"/>
<path d="M6960 7774 c-114 -23 -119 -25 -113 -43 4 -14 3 -14 -10 2 -18 21
-31 22 -23 2 5 -13 2 -14 -15 -4 -22 11 -67 -1 -99 -26 -8 -7 -28 -16 -45 -19
-16 -4 -37 -13 -45 -21 -8 -7 -48 -17 -89 -23 -85 -12 -101 -24 -105 -77 -5
-54 2 -70 33 -82 32 -12 63 0 55 21 -3 8 -1 17 5 21 6 3 11 14 11 23 0 24 29
39 70 36 19 -2 64 -6 100 -8 36 -3 77 -8 93 -12 19 -4 27 -2 27 7 0 9 4 8 13
-3 11 -14 41 -21 142 -34 17 -2 80 -3 140 -3 61 1 126 0 145 -1 19 -2 47 -3
63 -4 15 -1 27 -3 27 -6 0 -10 73 -10 85 0 7 6 35 10 62 9 26 -1 55 -1 63 0
27 2 -12 21 -44 21 -28 0 -29 1 -11 14 11 8 23 12 27 10 16 -10 7 19 -9 33
-10 8 -12 12 -5 8 7 -4 19 -2 26 4 15 13 147 18 164 7 15 -9 4 -36 -14 -36 -8
0 -14 -5 -14 -11 0 -6 9 -9 20 -6 11 3 20 1 20 -3 0 -5 15 -4 32 1 60 17 87
12 100 -18 7 -16 12 -37 12 -48 1 -17 8 -20 44 -21 45 -2 69 19 41 36 -10 7
-8 13 10 27 39 32 16 54 -89 86 -51 16 -113 41 -138 57 -26 15 -67 34 -92 40
-25 7 -55 17 -66 22 -13 6 -47 7 -82 3 -41 -5 -66 -3 -79 6 -12 7 -28 9 -39 4
-11 -4 -35 -9 -54 -10 -19 -2 -58 -6 -87 -10 -33 -5 -63 -4 -80 4 -15 6 -37
12 -48 14 -11 2 -30 8 -42 15 -12 7 -23 11 -25 11 -2 -1 -32 -7 -68 -15z m585
-34 c3 -5 17 -10 31 -10 13 0 24 -5 24 -11 0 -5 -4 -8 -9 -4 -5 3 -12 1 -15
-4 -3 -5 1 -11 9 -15 8 -3 17 0 21 6 4 7 10 5 16 -6 7 -12 21 -16 49 -14 22 1
45 -4 52 -11 10 -10 3 -12 -38 -8 -81 9 -179 28 -200 40 -11 6 -37 10 -57 8
-23 -1 -38 3 -38 9 0 8 23 10 70 8 56 -4 70 -2 66 9 -6 15 10 18 19 3z m-566
-21 c-9 -6 -1 -9 25 -9 22 0 37 -3 33 -6 -8 -8 -175 -9 -183 -1 -6 6 74 12 99
8 4 -1 10 6 13 14 3 8 11 12 16 9 6 -4 5 -10 -3 -15z m275 -8 c7 -10 -85 -22
-99 -13 -8 6 23 14 82 21 6 0 14 -3 17 -8z m-419 -11 c-3 -4 -20 -10 -39 -12
-24 -3 -32 0 -26 7 9 11 72 16 65 5z m603 -7 c-10 -2 -26 -2 -35 0 -10 3 -2 5
17 5 19 0 27 -2 18 -5z m-575 -50 c-7 -2 -19 -2 -25 0 -7 3 -2 5 12 5 14 0 19
-2 13 -5z m487 -14 c0 -7 7 -17 17 -24 9 -7 13 -17 9 -23 -9 -15 -26 -16 -26
-1 0 6 -7 17 -15 25 -8 9 -15 20 -15 25 0 5 7 9 15 9 8 0 15 -5 15 -11z m97
-19 c12 0 27 -9 33 -20 9 -16 8 -20 -6 -20 -21 0 -74 38 -74 53 0 8 3 8 12 -1
7 -7 22 -12 35 -12z m-24 -60 c-3 -11 -7 -20 -9 -20 -2 0 -4 9 -4 20 0 11 4
20 9 20 5 0 7 -9 4 -20z"/>
<path d="M7426 7771 c-3 -4 6 -8 20 -9 13 -1 24 0 24 2 0 7 -40 14 -44 7z"/>
<path d="M8397 6471 c-9 -287 -5 -315 44 -366 66 -69 83 -122 84 -255 0 -110
-18 -235 -36 -246 -11 -7 -12 -10 7 98 29 168 4 327 -62 389 l-24 23 5 -65 c3
-35 8 -73 10 -84 2 -11 -1 -38 -7 -60 -9 -37 -14 -65 -17 -114 0 -10 -9 -22
-18 -26 -15 -5 -16 -4 -5 6 6 7 12 22 12 34 0 13 -7 5 -20 -23 -11 -24 -24
-41 -30 -37 -5 3 -10 -3 -10 -14 0 -13 -19 -30 -64 -55 -35 -19 -71 -47 -80
-61 -28 -43 -50 -60 -76 -60 -14 0 -33 -10 -43 -23 -10 -12 -22 -20 -27 -17
-4 3 -17 -9 -28 -26 -12 -19 -22 -27 -26 -20 -4 6 -12 11 -18 11 -6 0 -4 -8 5
-18 31 -34 15 -55 -36 -45 -22 4 -27 2 -27 -16 0 -15 -6 -21 -22 -21 -13 0
-29 -4 -37 -9 -12 -8 -12 -12 -2 -25 9 -11 10 -16 2 -16 -6 0 -11 -6 -11 -14
0 -9 -7 -12 -21 -9 -12 3 -18 11 -15 19 4 10 -2 14 -18 14 -13 0 -27 -7 -30
-16 -8 -20 -8 -24 2 -23 4 1 18 1 32 0 l25 -2 -24 -10 c-23 -9 -24 -10 -5 -24
10 -8 14 -15 7 -15 -7 0 -9 -9 -5 -22 5 -20 3 -21 -10 -10 -13 10 -18 8 -33
-14 -10 -16 -23 -24 -33 -22 -13 4 -18 -3 -20 -32 -2 -35 -1 -37 25 -34 18 2
14 -1 -10 -7 -21 -6 -41 -18 -44 -25 -3 -8 -12 -14 -20 -14 -9 0 -13 -6 -10
-15 4 -8 2 -17 -4 -21 -6 -4 -6 -11 2 -20 9 -11 8 -14 -4 -14 -22 0 -29 -28
-9 -39 13 -7 14 -13 5 -22 -12 -12 -37 -3 -28 11 3 5 1 11 -4 15 -6 3 -8 -3
-6 -15 2 -11 0 -20 -5 -20 -5 0 -7 -9 -5 -20 2 -13 -2 -20 -11 -20 -8 0 -14
-6 -14 -14 0 -8 -9 -18 -20 -21 -24 -8 -27 -25 -4 -25 8 0 13 4 10 9 -3 5 3
11 14 14 11 3 18 2 16 -2 -3 -4 -1 -13 4 -21 6 -9 3 -18 -8 -26 -13 -9 -19 -9
-24 -1 -4 6 -10 8 -14 4 -11 -11 2 -19 36 -22 23 -2 30 1 26 11 -8 21 10 26
25 7 10 -12 10 -14 2 -9 -8 4 -13 1 -13 -8 0 -9 5 -16 10 -16 6 0 10 -4 10
-10 0 -5 -14 -7 -32 -4 -30 5 -31 4 -15 -9 30 -25 20 -40 -13 -20 -23 13 -32
15 -42 5 -9 -9 -6 -12 15 -12 15 0 27 -4 27 -9 0 -5 8 -12 18 -14 16 -4 16 -5
0 -6 -10 0 -18 -7 -18 -15 0 -11 9 -13 33 -11 25 3 28 2 14 -6 -9 -6 -21 -8
-26 -5 -5 3 -11 -1 -15 -9 -3 -8 -1 -17 5 -20 5 -4 7 -11 3 -16 -3 -5 -9 -7
-14 -4 -11 7 -43 -52 -35 -64 3 -5 -19 -24 -47 -42 -29 -17 -54 -30 -54 -28
-1 2 -10 -3 -20 -12 -11 -9 -41 -27 -69 -40 -27 -13 -52 -26 -55 -29 -11 -13
-191 -82 -273 -105 -105 -31 -268 -36 -382 -12 -16 4 -50 9 -75 12 -73 9 -175
40 -172 53 1 7 -4 11 -10 10 -7 -2 -12 4 -10 12 3 12 1 13 -9 3 -24 -24 -29
-13 -7 13 23 25 23 25 32 4 9 -20 10 -20 22 7 l12 28 11 -28 c6 -15 16 -27 23
-27 10 0 10 2 -1 9 -7 5 -11 13 -7 19 8 14 -4 43 -15 36 -5 -3 -9 4 -9 15 0
12 3 21 6 21 12 0 34 -29 35 -47 0 -16 1 -16 9 2 5 11 9 14 9 7 1 -7 6 -10 11
-7 6 3 10 2 10 -3 0 -5 7 -9 17 -9 14 0 13 3 -3 16 -11 9 -18 24 -16 35 3 13
0 16 -9 11 -8 -5 -10 -4 -5 4 4 6 5 20 1 31 -5 16 -10 17 -31 10 -34 -13 -34
-13 -31 13 1 13 -3 21 -10 19 -7 -1 -13 4 -13 11 0 7 9 13 20 14 13 1 18 -2
14 -9 -5 -7 -2 -8 6 -3 10 6 7 13 -14 30 -18 15 -25 27 -20 39 9 24 36 16 52
-17 7 -15 20 -27 28 -27 8 0 12 5 9 10 -4 6 -11 7 -17 4 -6 -4 -8 -3 -5 3 3 5
0 20 -7 34 -7 13 -11 29 -9 35 2 5 -10 18 -27 27 -18 11 -30 26 -30 39 0 14
-5 18 -16 14 -21 -8 -59 24 -59 49 0 14 7 20 23 19 12 0 22 3 22 8 0 4 -9 8
-20 8 -11 0 -23 7 -26 15 -7 17 -24 10 -24 -10 0 -10 6 -12 18 -8 15 6 15 5 3
-10 -7 -9 -20 -17 -27 -17 -8 0 -14 -4 -14 -10 0 -5 5 -10 10 -10 6 0 10 -4
10 -9 0 -5 -9 -7 -20 -4 -11 3 -17 10 -14 15 4 6 -4 5 -16 -2 -18 -9 -21 -9
-15 0 4 7 1 16 -6 21 -12 8 -12 11 1 19 13 8 12 10 -2 10 -10 0 -18 5 -18 10
0 6 3 10 8 10 4 0 8 11 8 25 2 21 -1 24 -12 14 -8 -6 -26 -9 -41 -6 -15 3 -35
1 -45 -4 -9 -5 -23 -6 -31 -3 -16 6 -21 64 -5 64 5 0 8 7 4 15 -3 8 -1 15 4
15 6 0 11 -7 11 -15 1 -8 2 -21 3 -27 0 -7 12 -15 25 -16 20 -3 23 0 18 17 -3
12 -1 21 5 21 5 0 6 5 2 12 -5 7 -2 9 8 6 8 -4 20 2 26 13 7 10 8 19 3 19 -5
0 -12 -6 -15 -12 -5 -10 -7 -10 -12 0 -8 17 -27 15 -21 -3 10 -24 -10 -26 -46
-5 -19 12 -39 20 -43 19 -5 -1 -17 1 -26 5 -17 8 -17 10 2 36 l19 27 -22 11
c-21 10 -21 11 8 12 25 0 27 2 12 11 -9 5 -22 7 -27 4 -6 -4 -7 2 -1 17 7 18
16 23 42 21 l34 -2 -42 19 c-30 13 -41 24 -39 37 3 13 11 17 29 16 19 -1 24 2
20 13 -3 8 -12 13 -19 10 -8 -3 -13 -2 -11 2 1 4 -2 7 -8 7 -5 0 -10 -6 -12
-14 -1 -7 -7 -19 -13 -25 -9 -8 -10 -4 -5 16 5 21 3 29 -10 34 -10 4 -21 1
-26 -7 -6 -10 -9 -6 -9 14 0 15 5 27 10 27 16 0 12 50 -5 56 -8 4 -15 10 -15
15 0 4 7 6 15 3 12 -5 15 2 14 32 0 22 -3 34 -6 27 -3 -10 -9 -10 -23 -1 -11
7 -23 8 -27 4 -4 -5 -2 -11 5 -13 14 -5 17 -33 3 -33 -5 0 -13 15 -17 33 -4
17 -9 26 -11 20 -6 -17 -23 -17 -23 0 0 7 -9 23 -19 34 -12 13 -18 29 -14 42
4 16 1 21 -16 21 -12 0 -26 11 -35 28 -8 15 -15 23 -16 17 0 -5 -7 3 -15 18
-8 15 -12 34 -8 43 3 8 2 14 -3 13 -25 -4 -44 3 -44 16 0 8 -7 15 -15 15 -8 0
-15 6 -15 13 0 6 -7 26 -16 42 -18 35 -21 236 -4 308 11 48 27 252 36 470 l6
149 -43 -22 c-52 -27 -128 -78 -149 -102 -44 -49 -57 -66 -75 -100 -75 -140
-94 -181 -115 -243 -21 -66 -32 -95 -76 -205 -10 -25 -41 -72 -69 -105 -28
-33 -60 -76 -71 -95 -10 -19 -25 -41 -33 -49 -7 -8 -18 -27 -23 -43 -6 -15
-14 -25 -19 -22 -5 3 -5 12 0 23 9 15 6 17 -20 13 -16 -2 -29 -8 -29 -13 0 -4
-16 -11 -35 -15 -19 -3 -33 -9 -31 -13 3 -4 -4 -12 -14 -19 -11 -6 -22 -8 -25
-3 -6 11 -45 3 -65 -14 -8 -7 -22 -15 -30 -18 -8 -4 3 -4 25 -1 l40 6 -54 -26
c-30 -15 -56 -24 -59 -21 -3 3 -1 5 5 5 6 0 14 7 17 16 5 13 -1 11 -26 -6 -18
-12 -41 -24 -50 -27 -10 -3 -18 -9 -18 -14 0 -5 -3 -8 -7 -7 -5 0 -17 -3 -28
-7 -189 -80 -303 -128 -317 -132 -26 -8 -22 -22 5 -16 13 4 18 2 14 -3 -5 -5
-25 -9 -44 -9 -21 0 -38 -6 -41 -13 -3 -9 4 -11 25 -7 l28 5 -29 -11 c-22 -9
-30 -9 -37 2 -8 13 -13 6 -10 -13 0 -4 -6 -5 -14 -2 -15 6 -42 -6 -270 -116
-77 -37 -162 -78 -190 -91 -27 -12 -52 -25 -55 -28 -9 -10 -135 -71 -147 -71
-6 0 -13 -3 -15 -8 -1 -4 -36 -27 -75 -51 -40 -24 -73 -46 -73 -50 0 -4 -25
-25 -56 -47 -31 -21 -65 -49 -77 -60 -12 -12 -43 -33 -69 -47 -25 -14 -63 -36
-85 -50 -21 -13 -115 -64 -210 -113 -95 -48 -170 -90 -168 -93 6 -5 117 44
165 73 51 31 112 58 105 46 -3 -5 -27 -19 -53 -30 -25 -11 -49 -24 -52 -28 -4
-6 -66 -36 -217 -103 -23 -10 -44 -23 -48 -29 -3 -5 -12 -10 -18 -10 -7 0 -3
7 7 15 25 19 18 19 -28 0 -20 -8 -36 -20 -36 -26 0 -5 5 -7 12 -3 7 4 8 3 4
-4 -4 -7 -27 -17 -51 -23 -25 -6 -50 -17 -56 -25 -6 -8 -17 -14 -23 -14 -7 0
-42 -20 -79 -45 -37 -25 -71 -45 -76 -45 -5 0 -14 -7 -21 -15 -7 -9 -38 -28
-69 -43 -70 -35 -121 -82 -121 -114 0 -13 -25 -58 -58 -103 -72 -99 -139 -221
-159 -289 -8 -28 -23 -60 -33 -71 -10 -11 -24 -39 -31 -62 -6 -23 -20 -51 -31
-62 -10 -11 -18 -24 -18 -30 0 -5 -11 -31 -24 -58 -70 -141 -191 -456 -232
-603 -9 -36 -21 -70 -26 -76 -4 -6 -5 -14 -2 -17 4 -3 0 -28 -9 -54 -26 -82
-39 -153 -34 -178 2 -14 1 -25 -3 -25 -12 0 -30 -50 -30 -85 0 -19 -4 -54 -10
-77 -9 -42 -28 -156 -50 -308 -6 -41 -17 -118 -24 -170 -26 -178 -33 -258 -41
-505 -5 -129 -13 -219 -26 -280 -11 -49 -22 -106 -25 -125 -3 -19 -9 -57 -14
-85 -5 -27 -19 -102 -30 -165 -12 -63 -27 -144 -35 -180 -12 -55 -29 -196 -40
-330 -3 -38 -14 -104 -22 -132 -4 -17 112 -18 2343 -18 l2347 0 -7 72 c-3 40
-11 164 -16 275 -6 111 -14 212 -20 225 -6 17 -7 10 -3 -24 4 -33 2 -48 -6
-48 -6 0 -11 6 -11 13 0 7 -9 20 -20 30 -13 11 -20 30 -21 54 -4 111 -6 132
-13 172 -7 38 -5 47 10 58 13 9 15 16 8 21 -10 6 -34 45 -34 55 0 2 14 1 31
-1 29 -4 30 -3 20 17 -14 25 -33 28 -24 4 5 -14 1 -13 -16 4 -18 19 -21 33
-21 115 0 64 3 88 10 78 6 -8 7 -34 4 -57 -5 -34 -3 -43 9 -43 18 0 30 27 20
43 -4 7 -11 39 -15 72 -10 77 -12 88 -22 103 -4 7 -2 12 6 12 9 0 10 2 1 8 -6
4 -13 42 -16 87 -3 44 -12 114 -22 155 -9 41 -18 100 -21 130 -2 30 -8 84 -13
120 -5 36 -9 77 -10 92 0 15 -5 66 -11 113 -5 47 -15 124 -20 171 -6 48 -13
90 -15 94 -3 5 -8 48 -11 97 -3 48 -9 111 -14 138 -5 28 -12 86 -15 130 -6 84
-8 105 -24 249 -6 50 -9 92 -6 94 2 3 0 12 -4 21 -9 17 -33 283 -35 396 -1 39
-5 76 -10 83 -4 7 -2 19 5 28 10 12 9 13 -7 8 -18 -5 -18 -5 0 10 18 14 18 20
7 58 -9 30 -10 43 -2 46 6 2 11 10 11 18 0 9 -4 13 -9 10 -5 -3 -8 18 -7 47 1
37 -3 51 -11 50 -15 -3 -18 14 -3 19 13 4 12 76 -4 181 -2 15 -1 27 2 27 4 0
7 35 7 78 1 61 5 82 20 100 11 12 25 22 32 22 7 0 21 9 30 19 9 11 20 18 25
15 4 -3 8 4 8 16 0 12 4 18 10 15 7 -4 7 3 0 20 -6 15 -8 30 -5 35 3 5 -4 12
-15 15 -16 5 -18 10 -10 20 8 9 8 15 0 20 -5 3 -10 17 -10 31 0 13 -4 24 -9
24 -5 0 -12 11 -15 25 -4 16 -11 23 -18 19 -8 -5 -9 -2 -5 9 4 11 1 17 -8 17
-8 0 -15 5 -15 11 0 5 -5 7 -12 3 -7 -5 -8 -3 -3 6 5 8 1 18 -10 26 -10 8 -15
17 -11 21 4 4 11 1 16 -7 6 -8 10 -11 10 -7 0 5 10 1 22 -7 46 -32 96 -11 94
39 -1 23 3 29 17 27 9 -2 17 2 17 8 0 5 -5 10 -11 10 -6 0 -8 9 -4 21 5 15 4
19 -4 15 -6 -4 -11 0 -11 8 0 9 6 16 13 16 7 0 8 3 2 8 -17 12 -14 41 4 34 14
-5 14 -4 2 12 -8 9 -20 15 -28 12 -8 -3 -11 -2 -8 4 7 11 -82 100 -91 91 -4
-3 -4 0 0 7 9 15 5 17 99 -67 74 -66 270 -189 392 -246 104 -49 345 -129 465
-155 30 -6 98 -22 150 -35 114 -28 330 -50 403 -42 153 19 422 123 597 232
102 63 319 211 375 256 89 70 280 275 371 399 85 115 184 278 215 355 37 91
40 94 33 45 -8 -59 -100 -239 -200 -390 -27 -41 -49 -82 -49 -90 -1 -8 -6 -14
-13 -13 -6 2 -9 -4 -5 -13 4 -11 0 -15 -13 -12 -15 2 -18 -2 -16 -19 2 -15 -5
-27 -22 -39 -15 -9 -26 -26 -26 -38 0 -27 -15 -50 -27 -43 -11 7 -80 -50 -71
-58 3 -4 18 6 32 22 14 15 26 22 26 16 0 -7 -5 -15 -11 -19 -6 -3 -9 -14 -6
-24 3 -13 0 -16 -14 -13 -13 4 -19 0 -19 -12 0 -9 -6 -15 -12 -12 -7 2 -12 10
-10 16 2 13 -14 15 -22 2 -3 -4 3 -16 14 -26 24 -21 27 -43 4 -24 -13 10 -17
10 -25 -2 -5 -8 -9 -10 -9 -4 0 26 -50 -48 -56 -83 -7 -46 4 -57 34 -36 23 16
31 64 11 64 -6 0 -9 -8 -7 -18 3 -11 0 -19 -8 -19 -18 0 -17 14 2 52 8 17 12
22 9 13 -3 -11 1 -18 10 -18 8 0 14 5 13 11 -2 6 3 14 11 17 11 3 12 -2 8 -24
-3 -16 -4 -23 -1 -16 3 6 10 10 15 6 5 -3 9 0 9 6 0 6 5 8 10 5 16 -10 12 -21
-15 -35 -14 -7 -25 -19 -25 -26 0 -7 -6 -17 -13 -21 -7 -4 -20 -20 -30 -35
-10 -16 -22 -28 -28 -28 -6 0 -8 4 -5 8 2 4 1 14 -5 22 -8 14 -11 7 -8 -16 0
-4 -5 -11 -13 -15 -10 -6 -8 -9 7 -9 12 0 16 -3 9 -8 -6 -4 -16 -17 -23 -29
-6 -13 -20 -23 -31 -23 -12 0 -21 -10 -25 -30 -6 -28 -25 -43 -25 -19 0 5 -5
7 -11 3 -8 -5 -8 -9 1 -14 8 -5 9 -20 4 -46 -7 -40 -27 -63 -55 -64 -20 0 -65
-47 -78 -82 -6 -15 -18 -67 -27 -115 -8 -48 -23 -104 -31 -123 -29 -66 -31
-75 -37 -113 -3 -21 -16 -63 -30 -94 -14 -30 -26 -64 -26 -75 0 -11 -11 -52
-24 -91 -43 -129 -54 -171 -70 -255 -9 -46 -18 -87 -21 -91 -2 -4 -11 -43 -20
-87 -9 -43 -20 -91 -26 -105 -14 -36 -24 -130 -34 -325 -3 -62 -8 -127 -10
-145 -8 -52 -7 -631 0 -749 4 -58 7 -114 7 -125 1 -77 20 -338 28 -375 5 -25
12 -67 15 -95 24 -220 57 -408 96 -547 11 -36 19 -82 19 -102 0 -20 4 -36 9
-36 9 0 33 -60 52 -130 6 -25 20 -64 30 -87 11 -24 19 -47 19 -52 0 -5 6 -22
14 -38 24 -47 46 -100 47 -115 0 -7 14 -33 30 -58 16 -25 34 -57 40 -72 l11
-28 2664 0 2664 0 -6 42 c-3 24 -14 75 -24 113 -10 39 -26 117 -34 175 -22
150 -54 317 -71 376 -16 55 -25 107 -30 164 -1 19 -5 42 -8 50 -3 8 -13 51
-22 95 -8 44 -20 105 -27 135 -6 30 -14 71 -19 90 -16 63 -38 173 -54 275 -15
101 -25 153 -44 235 -6 25 -15 74 -20 110 -6 36 -17 106 -26 155 -14 82 -25
168 -29 235 -1 14 -4 30 -7 35 -4 6 -9 27 -13 48 -4 23 -13 37 -21 37 -8 0
-15 5 -15 11 0 5 5 7 10 4 13 -8 4 78 -15 145 -7 25 -25 88 -40 140 -44 157
-135 431 -162 489 -38 81 -83 194 -83 209 0 7 -4 20 -10 30 -22 41 -60 134
-60 150 -1 24 -37 103 -55 116 -24 19 -95 160 -95 189 0 35 -40 105 -80 140
-18 16 -30 37 -30 51 0 29 -40 95 -57 96 -7 0 -13 4 -13 9 0 11 -99 85 -105
79 -5 -5 41 -49 89 -85 20 -15 24 -23 14 -23 -19 0 -58 32 -146 123 -36 37
-70 67 -75 67 -5 0 -27 13 -50 28 -124 85 -175 117 -312 197 -82 48 -157 93
-165 100 -8 7 -31 18 -51 24 -19 6 -76 44 -125 84 -49 40 -136 106 -194 147
-58 40 -109 80 -114 88 -6 11 -10 12 -16 2 -4 -7 -13 -9 -19 -6 -6 4 -9 11 -6
16 7 12 -59 59 -139 97 -39 19 -78 39 -86 44 -8 5 -26 14 -40 20 -31 13 -78
37 -155 80 -68 37 -207 109 -213 109 -2 0 0 -4 3 -10 9 -15 -7 -12 -29 5 -11
8 -25 15 -30 15 -7 0 -8 -3 -1 -8 6 -4 11 -18 13 -32 2 -24 2 -24 -12 -5 -7
11 -15 29 -17 40 -3 11 -13 21 -24 23 -16 2 -17 1 -5 -7 8 -5 11 -13 8 -16 -9
-10 -28 4 -28 19 0 12 -206 120 -430 226 -36 17 -101 49 -145 73 -98 52 -236
100 -228 81 3 -8 13 -14 22 -14 19 0 79 -46 70 -54 -3 -3 -27 9 -53 27 -43 29
-50 39 -73 106 -13 41 -33 94 -44 117 -10 24 -19 47 -19 53 0 5 -22 39 -49 74
-32 41 -61 97 -85 160 -20 53 -36 99 -36 102 0 6 -37 89 -68 154 -10 19 -41
59 -70 88 -39 41 -65 58 -105 69 -28 9 -65 23 -82 33 -66 38 -61 51 -68 -188z
m284 39 c5 0 9 -5 9 -11 0 -8 -5 -8 -15 1 -8 7 -14 20 -14 29 1 13 2 13 6 -1
2 -10 9 -18 14 -18z m19 -162 c0 -5 -9 -4 -20 2 -11 6 -20 12 -20 14 0 2 9 2
20 -1 11 -3 20 -9 20 -15z m60 -12 c0 -2 -7 -7 -16 -10 -8 -3 -12 -2 -9 4 6
10 25 14 25 6z m-3387 -87 c-6 -6 -9 -1 -7 13 3 33 6 36 11 14 3 -10 1 -22 -4
-27z m3434 -91 c-3 -8 -6 -5 -6 6 -1 11 2 17 5 13 3 -3 4 -12 1 -19z m103
-156 c0 -15 -2 -15 -10 -2 -13 20 -13 33 0 25 6 -3 10 -14 10 -23z m-83 -67
c0 -8 -4 -12 -9 -9 -5 3 -6 10 -3 15 9 13 12 11 12 -6z m116 8 c-7 -2 -13 -12
-13 -21 0 -15 -2 -15 -10 -2 -15 23 -12 30 13 29 12 0 16 -3 10 -6z m-3523
-37 c0 -3 -4 -8 -10 -11 -5 -3 -10 -1 -10 4 0 6 5 11 10 11 6 0 10 -2 10 -4z
m3324 -22 c5 -13 3 -14 -6 -7 -7 6 -20 13 -28 16 -10 4 -8 6 6 6 12 1 25 -6
28 -15z m-3514 -34 c0 -5 -2 -10 -4 -10 -3 0 -8 5 -11 10 -3 6 -1 10 4 10 6 0
11 -4 11 -10z m-42 -25 c-6 -14 -15 -25 -20 -25 -9 0 -4 14 15 38 15 19 18 14
5 -13z m3662 -25 c6 -11 7 -20 2 -20 -6 0 -12 9 -15 20 -3 11 -3 20 -1 20 2 0
8 -9 14 -20z m-3707 -58 c-3 -12 -9 -22 -14 -22 -12 0 -11 7 2 32 13 25 20 19
12 -10z m3614 -44 c11 -19 12 -38 2 -38 -5 0 -9 7 -9 15 0 8 -3 14 -7 14 -17
-3 -24 2 -18 11 8 14 22 13 32 -2z m-3627 -12 c0 -2 -7 -6 -15 -10 -8 -3 -15
-1 -15 4 0 6 7 10 15 10 8 0 15 -2 15 -4z m4062 -18 c-9 -9 -15 -9 -24 0 -9 9
-7 12 12 12 19 0 21 -3 12 -12z m-108 -53 c3 -25 3 -33 -3 -20 -15 36 -23 81
-13 70 5 -5 12 -28 16 -50z m-4058 24 c19 -22 19 -22 -3 -8 -13 8 -23 17 -23
21 0 12 6 9 26 -13z m-26 -29 c-6 -11 -13 -20 -15 -20 -3 0 -5 9 -5 20 0 11 7
20 15 20 13 0 14 -4 5 -20z m107 -12 c-3 -7 -5 -2 -5 12 0 14 2 19 5 13 2 -7
2 -19 0 -25z m3727 -4 c3 -8 2 -12 -4 -9 -6 3 -10 10 -10 16 0 14 7 11 14 -7z
m-3846 -59 c-21 -14 -35 -31 -33 -38 5 -13 -22 -54 -30 -45 -6 6 22 67 43 91
8 9 24 17 36 17 17 0 13 -5 -16 -25z m4562 -36 c0 -6 -4 -7 -10 -4 -5 3 -10
11 -10 16 0 6 5 7 10 4 6 -3 10 -11 10 -16z m-4830 7 c0 -2 -16 -13 -35 -25
-19 -11 -35 -18 -35 -16 0 5 61 45 68 45 1 0 2 -2 2 -4z m-80 -51 c0 -2 -10
-9 -22 -15 -22 -11 -22 -10 -4 4 21 17 26 19 26 11z m3380 -15 c0 -5 -2 -10
-4 -10 -3 0 -8 5 -11 10 -3 6 -1 10 4 10 6 0 11 -4 11 -10z m-3620 -20 c-8 -5
-22 -9 -30 -9 -10 0 -8 3 5 9 27 12 43 12 25 0z m4707 -42 c-3 -8 -6 -5 -6 6
-1 11 2 17 5 13 3 -3 4 -12 1 -19z m883 -78 c0 -5 -4 -10 -10 -10 -5 0 -10 5
-10 10 0 6 5 10 10 10 6 0 10 -4 10 -10z m54 -19 c34 -35 18 -51 -19 -20 -24
22 -34 49 -17 49 5 0 21 -13 36 -29z m-305 3 c10 -9 -45 -3 -59 6 -11 7 -5 8
20 4 19 -4 37 -8 39 -10z m-3749 -54 c0 -5 -4 -10 -10 -10 -5 0 -10 5 -10 10
0 6 5 10 10 10 6 0 10 -4 10 -10z m4121 -67 c13 -16 12 -17 -3 -4 -10 7 -18
15 -18 17 0 8 8 3 21 -13z m-41 -3 c8 -5 11 -10 5 -10 -5 0 -17 5 -25 10 -8 5
-10 10 -5 10 6 0 17 -5 25 -10z m-6150 -10 c0 -5 -5 -10 -11 -10 -5 0 -7 5 -4
10 3 6 8 10 11 10 2 0 4 -4 4 -10z m6466 -47 c-7 -7 -26 7 -26 19 0 6 6 6 15
-2 9 -7 13 -15 11 -17z m40 -13 c8 0 14 -4 14 -10 0 -5 15 -13 33 -18 38 -11
121 -61 114 -68 -3 -3 -13 -1 -24 4 -54 29 -150 72 -161 72 -14 0 -14 2 -5 26
4 11 8 13 11 6 2 -7 10 -12 18 -12z m-300 -16 c25 -15 43 -28 41 -31 -6 -5
-85 36 -93 48 -9 15 5 10 52 -17z m59 -2 c-3 -3 -11 0 -18 7 -9 10 -8 11 6 5
10 -3 15 -9 12 -12z m-991 -8 c5 -14 4 -15 -9 -4 -17 14 -19 20 -6 20 5 0 12
-7 15 -16z m1171 -32 c-3 -3 -11 0 -18 7 -9 10 -8 11 6 5 10 -3 15 -9 12 -12z
m-150 -2 c3 -6 -1 -7 -9 -4 -18 7 -21 14 -7 14 6 0 13 -4 16 -10z m-2558 -6
c-3 -3 -12 -4 -19 -1 -8 3 -5 6 6 6 11 1 17 -2 13 -5z m-1636 -33 c-8 -5 -20
-7 -28 -4 -21 8 -15 13 15 13 20 0 23 -3 13 -9z m39 -55 c-5 -4 -16 -3 -27 3
-17 10 -17 10 0 11 9 0 17 8 18 18 0 14 2 14 9 -3 4 -11 4 -24 0 -29z m-950
10 c0 -2 -8 -10 -17 -17 -16 -13 -17 -12 -4 4 13 16 21 21 21 13z m4130 -31
c0 -5 -5 -3 -10 5 -5 8 -10 20 -10 25 0 6 5 3 10 -5 5 -8 10 -19 10 -25z
m1392 7 c20 -12 41 -22 47 -22 60 0 345 -224 311 -245 -8 -5 -11 -4 -7 2 4 5
-5 16 -18 23 -14 7 -25 19 -25 26 0 7 -15 18 -34 25 -18 7 -41 25 -50 40 -19
32 -51 53 -66 44 -6 -3 -10 1 -10 9 0 8 -10 20 -21 27 -20 10 -21 9 -15 -17 6
-24 5 -26 -8 -15 -8 7 -13 18 -10 25 5 14 -10 29 -39 39 -14 5 -20 1 -24 -13
-6 -22 -30 -22 -25 0 5 20 -39 60 -64 60 -13 0 -25 3 -27 8 -10 16 52 4 85
-16z m-1855 -4 c-3 -8 -6 -5 -6 6 -1 11 2 17 5 13 3 -3 4 -12 1 -19z m-5272 2
c-28 -12 -37 -12 -30 0 3 6 16 10 28 9 21 0 21 -1 2 -9z m4683 -27 c-10 -2
-18 -10 -18 -18 0 -12 -40 -29 -49 -20 -2 3 1 5 7 5 7 0 9 7 5 17 -5 12 -2 15
10 10 9 -3 19 -2 22 3 4 6 14 9 23 9 15 -1 15 -2 0 -6z m1074 -38 c9 -20 9
-20 -6 -1 -9 11 -16 27 -15 35 0 14 1 14 6 1 3 -8 10 -24 15 -35z m-5852 30
c0 -7 -130 -68 -135 -63 -3 3 7 11 23 18 15 8 35 20 44 28 9 8 21 11 27 8 5
-4 12 -2 16 4 6 10 25 14 25 5z m160 1 c0 -2 -11 -6 -25 -8 -13 -3 -22 -1 -19
3 5 9 44 13 44 5z m1424 -38 c-16 -13 -33 -26 -39 -30 -5 -4 -32 -26 -58 -48
-27 -22 -50 -40 -53 -40 -14 0 35 50 64 66 17 9 32 21 32 26 0 9 59 48 74 48
5 0 -4 -10 -20 -22z m1126 12 c-8 -5 -19 -10 -25 -10 -5 0 -3 5 5 10 8 5 20
10 25 10 6 0 3 -5 -5 -10z m-1210 -4 c0 -2 -7 -7 -16 -10 -8 -3 -12 -2 -9 4 6
10 25 14 25 6z m2710 -11 c0 -2 -7 -5 -15 -9 -9 -3 -15 0 -15 9 0 9 6 12 15 9
8 -4 15 -7 15 -9z m3080 5 c0 -5 -5 -10 -11 -10 -5 0 -7 5 -4 10 3 6 8 10 11
10 2 0 4 -4 4 -10z m3 -40 c9 0 17 -4 17 -9 0 -5 14 -11 32 -15 17 -3 29 -8
26 -11 -7 -7 -138 35 -138 44 0 17 14 20 30 6 9 -8 24 -15 33 -15z m-233 0 c0
-5 -2 -10 -4 -10 -3 0 -8 5 -11 10 -3 6 -1 10 4 10 6 0 11 -4 11 -10z m-7200
-4 c0 -3 -4 -8 -10 -11 -5 -3 -10 -1 -10 4 0 6 5 11 10 11 6 0 10 -2 10 -4z
m4840 -22 c0 -18 -40 -60 -66 -68 -19 -6 -21 -3 -16 20 3 15 8 21 12 14 5 -8
11 -6 20 5 7 8 19 15 26 15 17 0 18 12 2 29 -11 10 -10 11 5 6 9 -4 17 -13 17
-21z m-4777 -21 c-7 -2 -19 -2 -25 0 -7 3 -2 5 12 5 14 0 19 -2 13 -5z m7517
-3 c8 -5 11 -10 5 -10 -5 0 -17 5 -25 10 -8 5 -10 10 -5 10 6 0 17 -5 25 -10z
m-7577 -20 c-9 -11 -19 -17 -21 -15 -6 6 18 35 29 35 5 0 1 -9 -8 -20z m2847
-14 c0 -10 -30 0 -34 11 -4 11 -1 11 14 3 11 -6 20 -12 20 -14z m3204 -32 c15
-31 25 -59 22 -61 -5 -5 -56 94 -56 109 0 18 9 5 34 -48z m-3180 30 c3 -8 2
-12 -4 -9 -6 3 -10 10 -10 16 0 14 7 11 14 -7z m2652 -12 c-4 -3 -14 2 -24 12
-16 18 -16 18 6 6 13 -6 21 -14 18 -18z m-3971 -2 c-3 -5 -12 -10 -18 -10 -7
0 -6 4 3 10 19 12 23 12 15 0z m-1720 -10 c-3 -5 -12 -10 -18 -10 -7 0 -6 4 3
10 19 12 23 12 15 0z m7786 -13 c-10 -9 -11 -8 -5 6 3 10 9 15 12 12 3 -3 0
-11 -7 -18z m-4655 -34 c-11 -11 -17 4 -9 23 7 18 8 18 11 1 2 -10 1 -21 -2
-24z m41 -8 c0 -8 -6 -15 -13 -15 -8 0 -11 6 -8 15 4 8 9 15 13 15 4 0 8 -7 8
-15z m4798 -54 c-7 -6 -65 50 -65 63 0 5 16 -5 35 -24 19 -18 32 -36 30 -39z
m-6325 55 c0 -2 -20 -17 -45 -33 -25 -15 -45 -32 -45 -36 0 -5 -5 -5 -11 -2
-6 4 10 21 38 40 46 32 63 40 63 31z m6189 -3 c12 10 14 9 8 -5 -3 -9 -1 -19
6 -21 7 -2 10 -7 7 -10 -3 -3 -17 4 -31 16 -13 12 -20 19 -15 15 5 -4 16 -2
25 5z m-2049 -24 c0 -6 -4 -7 -10 -4 -5 3 -10 11 -10 16 0 6 5 7 10 4 6 -3 10
-11 10 -16z m-2713 -15 c-9 -9 -28 6 -21 18 4 6 10 6 17 -1 6 -6 8 -13 4 -17z
m-64 -14 c-3 -12 -8 -19 -11 -16 -5 6 5 36 12 36 2 0 2 -9 -1 -20z m4972 -44
c39 -35 68 -66 65 -70 -3 -3 -18 5 -33 17 -14 12 -42 35 -62 51 -19 15 -35 34
-35 41 0 8 -8 16 -17 18 -13 3 -14 5 -3 6 8 0 47 -28 85 -63z m-6580 34 c-3
-5 -10 -10 -16 -10 -5 0 -9 5 -9 10 0 6 7 10 16 10 8 0 12 -4 9 -10z m4896
-17 c13 -16 12 -17 -3 -4 -10 7 -18 15 -18 17 0 8 8 3 21 -13z m1762 8 c4 -1
7 -5 7 -10 0 -9 -48 -2 -55 8 -2 4 6 6 18 5 12 -1 25 -3 30 -3z m-6554 -28
c-17 -15 -38 -28 -46 -29 -8 -2 -13 0 -10 3 3 2 7 3 9 1 2 -1 17 9 33 25 16
15 34 27 38 27 5 0 -6 -12 -24 -27z m-1589 7 c0 -5 -9 -10 -21 -10 -11 0 -17
5 -14 10 3 6 13 10 21 10 8 0 14 -4 14 -10z m8197 -16 c-7 -7 -37 7 -37 17 0
6 9 5 21 -1 11 -7 19 -14 16 -16z m-5921 -14 c-1 -30 -10 -38 -21 -20 -4 7 14
50 21 50 1 0 1 -13 0 -30z m4149 -20 c9 -16 13 -30 11 -30 -3 0 -12 14 -21 30
-9 17 -13 30 -11 30 3 0 12 -13 21 -30z m-3309 -15 c14 -11 15 -14 4 -14 -8 0
-24 6 -34 14 -15 11 -16 15 -5 15 8 0 24 -7 35 -15z m-3399 -31 c-3 -3 -12 -4
-19 -1 -8 3 -5 6 6 6 11 1 17 -2 13 -5z m1673 -4 c0 -5 -4 -10 -10 -10 -5 0
-10 5 -10 10 0 6 5 10 10 10 6 0 10 -4 10 -10z m1835 0 c8 -13 -5 -13 -25 0
-13 8 -13 10 2 10 9 0 20 -4 23 -10z m4950 -1 c11 -17 -1 -21 -15 -4 -8 9 -8
15 -2 15 6 0 14 -5 17 -11z m-4983 -22 c27 -25 49 -69 24 -48 -11 9 -15 9 -20
-1 -3 -7 -4 -4 -1 7 3 13 -2 25 -16 33 -18 12 -19 11 -10 -7 8 -14 8 -22 -1
-27 -6 -4 -9 -3 -6 2 3 5 0 15 -8 22 -10 10 -14 10 -14 1 0 -7 -3 -9 -7 -6 -5
5 23 47 32 47 1 0 13 -10 27 -23z m116 -2 c18 1 22 -3 20 -18 -2 -11 -10 -21
-19 -23 -12 -1 -15 4 -11 19 3 14 1 18 -6 13 -7 -4 -12 -13 -12 -21 0 -7 -8
-16 -17 -19 -15 -6 -15 -8 -3 -17 13 -9 13 -10 0 -6 -8 2 -14 10 -12 17 2 7
-3 17 -10 23 -9 6 -7 7 6 3 28 -9 38 14 18 39 -16 19 -16 20 3 4 11 -9 30 -15
43 -14z m-3573 -5 c-3 -4 -19 -13 -35 -19 -18 -6 -28 -6 -25 -1 4 6 13 10 21
10 8 0 17 7 20 15 4 8 10 12 15 9 5 -3 7 -9 4 -14z m1560 0 c-3 -5 -12 -10
-18 -10 -7 0 -6 4 3 10 19 12 23 12 15 0z m145 0 c-20 -13 -43 -13 -35 0 3 6
16 10 28 10 18 0 19 -2 7 -10z m-1310 -20 c-8 -5 -19 -10 -25 -10 -5 0 -3 5 5
10 8 5 20 10 25 10 6 0 3 -5 -5 -10z m8010 -5 c6 -8 10 -20 7 -27 -3 -8 -6 -6
-6 5 -1 10 -11 22 -23 27 -16 6 -18 9 -7 9 9 1 22 -6 29 -14z m-6860 -10 l25
-14 -34 4 c-21 2 -39 -2 -48 -11 -8 -8 -19 -11 -25 -8 -6 4 -14 1 -18 -6 -4
-7 -14 -10 -21 -8 -8 3 7 16 36 31 59 31 54 30 85 12z m85 -4 c-3 -6 -16 -11
-28 -11 -21 1 -21 1 3 15 27 14 36 13 25 -4z m1012 3 c-3 -3 -12 -4 -19 -1 -8
3 -5 6 6 6 11 1 17 -2 13 -5z m5964 -14 c17 -13 19 -19 9 -19 -16 0 -50 22
-50 33 0 12 18 6 41 -14z m-8885 -35 c-11 -8 -25 -15 -30 -15 -6 1 0 7 14 15
32 19 40 18 16 0z m8789 -5 c18 -19 17 -20 -1 -20 -11 0 -25 9 -32 20 -10 16
-10 20 1 20 8 0 22 -9 32 -20z m-8865 -24 c0 -2 -7 -7 -16 -10 -8 -3 -12 -2
-9 4 6 10 25 14 25 6z m9106 -22 c19 -15 19 -15 -1 -6 -11 5 -27 12 -35 15
-13 5 -13 6 1 6 8 1 24 -6 35 -15z m-9146 -8 c0 -2 -8 -10 -17 -17 -16 -13
-17 -12 -4 4 13 16 21 21 21 13z m8990 -31 c11 -13 10 -14 -4 -9 -9 3 -16 10
-16 15 0 13 6 11 20 -6z m-9009 -11 c-18 -8 -38 -13 -45 -11 -6 3 5 9 24 15
50 15 60 13 21 -4z m9404 -42 c3 -8 -4 -6 -20 5 -13 10 -25 21 -25 26 0 11 39
-16 45 -31z m-9235 24 c0 -3 -4 -8 -10 -11 -5 -3 -10 -1 -10 4 0 6 5 11 10 11
6 0 10 -2 10 -4z m2885 -46 c3 -5 -3 -10 -15 -10 -12 0 -18 5 -15 10 3 6 10
10 15 10 5 0 12 -4 15 -10z m6098 -21 c4 -16 3 -18 -9 -8 -16 13 -19 29 -5 29
5 0 11 -9 14 -21z m-9353 6 c0 -2 -10 -9 -22 -15 -22 -11 -22 -10 -4 4 21 17
26 19 26 11z m240 2 c0 -2 -12 -14 -27 -28 l-28 -24 24 28 c23 25 31 32 31 24z
m-40 -11 c0 -3 -4 -8 -10 -11 -5 -3 -10 -1 -10 4 0 6 5 11 10 11 6 0 10 -2 10
-4z m9474 -45 c-6 -6 -24 19 -24 34 1 6 7 1 15 -9 8 -11 12 -22 9 -25z m-9527
23 c-3 -3 -12 -4 -19 -1 -8 3 -5 6 6 6 11 1 17 -2 13 -5z m-50 -20 c-3 -3 -12
-4 -19 -1 -8 3 -5 6 6 6 11 1 17 -2 13 -5z m-37 -24 c0 -5 -8 -10 -17 -10 -15
0 -16 2 -3 10 19 12 20 12 20 0z m9674 -16 c5 -14 4 -15 -9 -4 -17 14 -19 20
-6 20 5 0 12 -7 15 -16z m-6572 -16 c-7 -7 -12 -8 -12 -2 0 14 12 26 19 19 2
-3 -1 -11 -7 -17z m-3265 -71 c-26 -27 -31 -26 -22 2 3 12 15 21 25 21 18 0
18 -2 -3 -23z m2503 -12 c-7 -8 -17 -15 -23 -15 -6 0 -2 7 9 15 25 19 30 19
14 0z m7247 -1 c-3 -3 -12 -4 -19 -1 -8 3 -5 6 6 6 11 1 17 -2 13 -5z m-9757
-29 c-7 -9 -15 -13 -19 -10 -3 3 1 10 9 15 21 14 24 12 10 -5z m9940 -41 c0
-27 -15 -32 -24 -9 -7 19 3 47 15 39 5 -3 9 -16 9 -30z m-9781 -37 c-2 -1 -13
-9 -24 -17 -19 -14 -19 -14 -6 3 7 9 18 17 24 17 6 0 8 -1 6 -3z m9469 -42
c-3 -3 -9 2 -12 12 -6 14 -5 15 5 6 7 -7 10 -15 7 -18z m392 -59 c0 -3 -4 -8
-10 -11 -5 -3 -10 -1 -10 4 0 6 5 11 10 11 6 0 10 -2 10 -4z m160 -276 c0 -5
-2 -10 -4 -10 -3 0 -8 5 -11 10 -3 6 -1 10 4 10 6 0 11 -4 11 -10z m50 -85 c7
-9 8 -15 2 -15 -5 0 -12 7 -16 15 -3 8 -4 15 -2 15 2 0 9 -7 16 -15z m-1140
-95 c0 -5 -2 -10 -4 -10 -3 0 -8 5 -11 10 -3 6 -1 10 4 10 6 0 11 -4 11 -10z
m-6913 -302 c-3 -8 -6 -5 -6 6 -1 11 2 17 5 13 3 -3 4 -12 1 -19z m8213 -18
c0 -5 -5 -10 -11 -10 -5 0 -7 5 -4 10 3 6 8 10 11 10 2 0 4 -4 4 -10z m17 -62
c-3 -8 -6 -5 -6 6 -1 11 2 17 5 13 3 -3 4 -12 1 -19z m25 -65 c7 -9 7 -13 0
-13 -12 0 -22 25 -21 48 1 13 3 12 6 -3 3 -11 10 -26 15 -32z m105 -375 c-3
-8 -6 -5 -6 6 -1 11 2 17 5 13 3 -3 4 -12 1 -19z m60 -320 c-3 -8 -6 -5 -6 6
-1 11 2 17 5 13 3 -3 4 -12 1 -19z m-10787 -58 c0 -5 -5 -10 -11 -10 -5 0 -7
5 -4 10 3 6 8 10 11 10 2 0 4 -4 4 -10z m7275 -540 c3 -6 17 -7 31 -4 19 5 24
2 24 -13 0 -10 5 -24 11 -30 6 -6 9 -17 6 -25 -3 -8 -10 0 -18 20 -8 17 -17
32 -21 32 -11 0 -6 -64 6 -73 6 -4 0 -7 -14 -5 -22 3 -25 7 -22 39 2 23 -2 40
-13 49 -21 17 -32 4 -17 -20 8 -13 8 -20 2 -20 -14 0 -24 26 -16 45 6 17 32
20 41 5z m164 -64 c1 -27 -2 -46 -9 -46 -5 0 -10 22 -10 51 0 62 15 58 19 -5z
m-39 24 c0 -5 -5 -10 -11 -10 -6 0 -9 -9 -6 -20 6 -24 -8 -36 -17 -14 -12 32
-6 54 14 54 11 0 20 -4 20 -10z m126 -40 c2 -25 0 -39 -6 -35 -6 3 -10 25 -10
47 0 52 11 43 16 -12z m-40 5 c0 -41 -12 -46 -26 -9 -14 36 -13 44 8 44 14 0
18 -8 18 -35z m104 -13 c0 -13 -3 -12 -14 4 -8 10 -18 16 -22 11 -4 -4 -2 -13
4 -19 15 -15 16 -28 2 -28 -16 0 -24 51 -9 61 16 10 39 -7 39 -29z m30 -3 c0
-16 -4 -29 -10 -29 -5 0 -10 16 -10 36 0 21 4 33 10 29 6 -3 10 -19 10 -36z
m32 -5 c2 -19 0 -37 -4 -40 -9 -6 -10 -3 -14 44 -3 44 13 41 18 -4z m3238 -85
c0 -11 -4 -18 -10 -14 -5 3 -7 12 -3 20 7 21 13 19 13 -6z m-15 -29 c3 -5 1
-10 -4 -10 -6 0 -11 5 -11 10 0 6 2 10 4 10 3 0 8 -4 11 -10z m-4 -93 c-10 -9
-11 -8 -5 6 3 10 9 15 12 12 3 -3 0 -11 -7 -18z m-11462 -227 c0 -10 -3 -8 -9
5 -12 27 -12 43 0 25 5 -8 9 -22 9 -30z m9281 -263 c0 -7 -6 -3 -12 8 -6 11
-16 27 -22 35 -6 9 -1 5 12 -8 12 -13 22 -28 22 -35z m7 -39 c-3 -8 -6 -5 -6
6 -1 11 2 17 5 13 3 -3 4 -12 1 -19z m-4864 -287 c9 -12 9 -13 0 -7 -18 10
-16 -9 1 -23 12 -10 15 -7 19 16 2 15 4 -8 5 -52 0 -59 -2 -72 -8 -52 -5 16
-6 35 -4 42 3 7 -6 24 -20 38 -21 21 -26 35 -25 74 l1 48 10 -35 c5 -19 15
-41 21 -49z"/>
<path d="M7986 6375 c-3 -8 -1 -15 4 -15 6 0 10 7 10 15 0 8 -2 15 -4 15 -2 0
-6 -7 -10 -15z"/>
<path d="M8156 5624 c-9 -24 -2 -26 12 -4 7 11 8 20 3 20 -5 0 -12 -7 -15 -16z"/>
<path d="M8090 5590 c0 -5 5 -10 11 -10 5 0 7 5 4 10 -3 6 -8 10 -11 10 -2 0
-4 -4 -4 -10z"/>
<path d="M5875 5470 c-3 -6 1 -7 9 -4 18 7 21 14 7 14 -6 0 -13 -4 -16 -10z"/>
<path d="M7673 5335 c0 -9 4 -14 9 -13 5 2 10 8 10 13 0 5 -5 11 -10 13 -5 1
-9 -4 -9 -13z"/>
<path d="M5980 5325 c0 -11 5 -27 10 -35 8 -12 10 -12 10 5 0 11 -5 27 -10 35
-8 12 -10 12 -10 -5z"/>
<path d="M6030 5330 c0 -6 7 -10 15 -10 8 0 15 2 15 4 0 2 -7 6 -15 10 -8 3
-15 1 -15 -4z"/>
<path d="M7647 5276 c-4 -9 -11 -15 -16 -12 -5 3 -12 -1 -15 -10 -3 -8 -2 -13
2 -10 4 2 14 1 22 -4 12 -8 13 -13 3 -29 -10 -16 -9 -22 3 -32 19 -15 31 -4
15 15 -9 10 -9 15 -1 18 7 2 13 18 14 35 1 18 -1 30 -5 27 -4 -2 -9 1 -11 8
-3 7 -7 5 -11 -6z"/>
<path d="M7433 5179 c1 -14 8 -26 15 -26 16 0 15 9 -2 32 -14 19 -14 18 -13
-6z"/>
<path d="M7560 5179 c0 -5 5 -7 10 -4 6 3 10 8 10 11 0 2 -4 4 -10 4 -5 0 -10
-5 -10 -11z"/>
<path d="M7447 5113 c-16 -15 -6 -31 18 -28 30 3 46 15 21 15 -9 0 -14 5 -11
10 7 11 -18 14 -28 3z"/>
<path d="M6096 5075 c-3 -8 -12 -12 -21 -9 -8 3 -15 2 -15 -4 0 -5 16 -12 35
-14 27 -3 34 -1 30 10 -3 7 -5 18 -5 23 0 15 -17 10 -24 -6z"/>
<path d="M6145 5036 c-8 -11 -21 -13 -58 -7 -50 8 -51 3 -4 -17 21 -9 27 -9
21 0 -5 8 -2 9 9 5 22 -8 70 10 62 23 -9 14 -18 13 -30 -4z"/>
<path d="M6206 5006 c3 -9 1 -23 -6 -31 -13 -15 -3 -20 15 -7 14 10 12 45 -3
50 -7 2 -10 -2 -6 -12z"/>
<path d="M6186 4942 c-3 -5 1 -9 9 -9 8 0 12 4 9 9 -3 4 -7 8 -9 8 -2 0 -6 -4
-9 -8z"/>
<path d="M6085 4890 c3 -5 8 -10 11 -10 2 0 4 5 4 10 0 6 -5 10 -11 10 -5 0
-7 -4 -4 -10z"/>
<path d="M6230 4889 c0 -5 5 -7 10 -4 6 3 10 -2 10 -11 0 -13 3 -15 11 -7 6 6
8 16 5 22 -9 14 -36 14 -36 0z"/>
<path d="M7470 4878 c0 -4 14 -8 30 -8 17 0 30 2 30 4 0 2 -13 6 -30 8 -16 3
-30 1 -30 -4z"/>
<path d="M6232 4848 c5 -15 28 -23 28 -10 0 5 -7 13 -16 16 -10 4 -14 1 -12
-6z"/>
<path d="M6466 4666 c3 -9 11 -16 16 -16 13 0 5 23 -10 28 -7 2 -10 -2 -6 -12z"/>
<path d="M7520 4652 c0 -4 9 -8 20 -9 11 -1 20 2 20 8 0 5 -9 9 -20 9 -11 0
-20 -4 -20 -8z"/>
<path d="M5500 4619 c0 -5 5 -7 10 -4 6 3 10 8 10 11 0 2 -4 4 -10 4 -5 0 -10
-5 -10 -11z"/>
<path d="M7465 4610 c-3 -5 -2 -10 4 -10 5 0 13 5 16 10 3 6 2 10 -4 10 -5 0
-13 -4 -16 -10z"/>
<path d="M7880 4610 c0 -5 5 -10 10 -10 6 0 10 5 10 10 0 6 -4 10 -10 10 -5 0
-10 -4 -10 -10z"/>
<path d="M6470 4550 c0 -16 34 -28 55 -19 17 6 17 8 3 8 -10 1 -18 6 -18 11 0
6 -9 10 -20 10 -11 0 -20 -4 -20 -10z"/>
<path d="M7860 4531 c0 -5 5 -13 10 -16 6 -3 10 -2 10 4 0 5 -4 13 -10 16 -5
3 -10 2 -10 -4z"/>
<path d="M7832 4511 c7 -9 14 -18 15 -20 2 -2 3 5 3 16 0 11 -7 20 -15 20 -12
0 -12 -3 -3 -16z"/>
<path d="M7794 4509 c-3 -6 -2 -15 3 -20 5 -5 9 -1 9 11 0 23 -2 24 -12 9z"/>
<path d="M5475 4460 c3 -5 8 -10 11 -10 2 0 4 5 4 10 0 6 -5 10 -11 10 -5 0
-7 -4 -4 -10z"/>
<path d="M5605 999 c-4 -6 2 -13 13 -16 14 -3 19 -11 15 -21 -4 -15 -3 -15 6
-2 16 22 14 43 -5 36 -8 -3 -12 -2 -9 4 3 6 2 10 -4 10 -5 0 -13 -5 -16 -11z"/>
<path d="M5643 883 c-20 -7 -15 -23 7 -23 11 0 20 4 20 9 0 13 -12 19 -27 14z"/>
<path d="M5656 828 c-6 -19 -3 -34 8 -50 15 -21 16 -21 15 -3 -1 11 -5 34 -9
50 l-7 30 -7 -27z"/>
</g>
</svg>
